<svg xmlns="http://www.w3.org/2000/svg" xmlns:xlink="http://www.w3.org/1999/xlink" contentStyleType="text/css" data-diagram-type="DESCRIPTION" height="942.7083px" preserveAspectRatio="none" style="width:1928px;height:942px;" version="1.1" viewBox="0 0 1928 942" width="1928.125px" zoomAndPan="magnify"><?plantuml 1.2026.5?><defs><linearGradient id="g1u6puy5oj2uuc0" x1="50%" x2="50%" y1="0%" y2="100%"><stop offset="0%" stop-color="#EDF0F2"/><stop offset="100%" stop-color="#E9ECEF"/></linearGradient><linearGradient id="g1u6puy5oj2uuc1" x1="50%" x2="50%" y1="0%" y2="100%"><stop offset="0%" stop-color="#59B6EC"/><stop offset="100%" stop-color="#2FA4E7"/></linearGradient><linearGradient id="g1u6puy5oj2uuc2" x1="50%" x2="50%" y1="0%" y2="100%"><stop offset="0%" stop-color="#35638F"/><stop offset="100%" stop-color="#033C73"/></linearGradient></defs><g><g class="title" data-source-line="2"><rect fill="url(#g1u6puy5oj2uuc0)" height="36.7513" rx="4.1667" ry="4.1667" style="stroke:#BABDBF;stroke-width:1.0417;" width="814.9089" x="555.5664" y="20.8333"/><text fill="#2FA4E7" font-family="'Verdana'" font-size="20.8333" font-weight="700" lengthAdjust="spacing" textLength="802.4089" x="561.8164" y="46.4213">Auth Module &#8212; Arquitetura de Componentes (TASK-FRONTEND-001)</text></g><!--cluster src/components/--><g class="cluster" data-qualified-name="src.components." data-source-line="4" id="ent0001"><path d="M20.8333,298.168 L135.144,298.168 A6.25,6.25 0 0 1 139.3107,302.3346 L146.6024,318.9688 L241.6667,318.9688 A4.1667,4.1667 0 0 1 245.8333,323.1354 L245.8333,634.5221 A4.1667,4.1667 0 0 1 241.6667,638.6888 L20.8333,638.6888 A4.1667,4.1667 0 0 1 16.6667,634.5221 L16.6667,302.3346 A4.1667,4.1667 0 0 1 20.8333,298.168" fill="none" style="stroke:#59B6EC;stroke-width:2.0833;"/><line style="stroke:#59B6EC;stroke-width:2.0833;" x1="16.6667" x2="146.6024" y1="318.9688" y2="318.9688"/><text fill="#2FA4E7" font-family="'Verdana'" font-size="12.5" font-weight="700" lengthAdjust="spacing" textLength="116.394" x="20.8333" y="311.8541">src/components/</text></g><!--cluster src/features/auth/--><g class="cluster" data-qualified-name="src.features.auth." data-source-line="13" id="ent0006"><path d="M358.3333,75.293 L482.4768,75.293 A6.25,6.25 0 0 1 486.6435,79.4596 L493.9351,96.0938 L1007.2917,96.0938 A4.1667,4.1667 0 0 1 1011.4583,100.2604 L1011.4583,414.8034 A4.1667,4.1667 0 0 1 1007.2917,418.9701 L358.3333,418.9701 A4.1667,4.1667 0 0 1 354.1667,414.8034 L354.1667,79.4596 A4.1667,4.1667 0 0 1 358.3333,75.293" fill="none" style="stroke:#59B6EC;stroke-width:2.0833;"/><line style="stroke:#59B6EC;stroke-width:2.0833;" x1="354.1667" x2="493.9351" y1="96.0938" y2="96.0938"/><text fill="#2FA4E7" font-family="'Verdana'" font-size="12.5" font-weight="700" lengthAdjust="spacing" textLength="126.2268" x="358.3333" y="88.9791">src/features/auth/</text></g><!--cluster components/--><g class="cluster" data-qualified-name="src.features.auth..components." data-source-line="14" id="ent0007"><path d="M761.4583,298.168 L850.1892,298.168 A6.25,6.25 0 0 1 854.3559,302.3346 L861.6475,318.9688 L919.7917,318.9688 A4.1667,4.1667 0 0 1 923.9583,323.1354 L923.9583,389.8034 A4.1667,4.1667 0 0 1 919.7917,393.9701 L761.4583,393.9701 A4.1667,4.1667 0 0 1 757.2917,389.8034 L757.2917,302.3346 A4.1667,4.1667 0 0 1 761.4583,298.168" fill="none" style="stroke:#59B6EC;stroke-width:2.0833;"/><line style="stroke:#59B6EC;stroke-width:2.0833;" x1="757.2917" x2="861.6475" y1="318.9688" y2="318.9688"/><text fill="#2FA4E7" font-family="'Verdana'" font-size="12.5" font-weight="700" lengthAdjust="spacing" textLength="90.8142" x="761.4583" y="311.8541">components/</text></g><!--cluster screens/--><g class="cluster" data-qualified-name="src.features.auth..screens." data-source-line="17" id="ent0009"><path d="M634.375,116.9596 L691.1662,116.9596 A6.25,6.25 0 0 1 695.3328,121.1263 L702.6245,137.7604 L952.0833,137.7604 A4.1667,4.1667 0 0 1 956.25,141.9271 L956.25,208.5951 A4.1667,4.1667 0 0 1 952.0833,212.7617 L634.375,212.7617 A4.1667,4.1667 0 0 1 630.2083,208.5951 L630.2083,121.1263 A4.1667,4.1667 0 0 1 634.375,116.9596" fill="none" style="stroke:#59B6EC;stroke-width:2.0833;"/><line style="stroke:#59B6EC;stroke-width:2.0833;" x1="630.2083" x2="702.6245" y1="137.7604" y2="137.7604"/><text fill="#2FA4E7" font-family="'Verdana'" font-size="12.5" font-weight="700" lengthAdjust="spacing" textLength="58.8745" x="634.375" y="130.6458">screens/</text></g><!--cluster hooks/--><g class="cluster" data-qualified-name="src.features.auth..hooks." data-source-line="21" id="ent0012"><path d="M383.3333,298.168 L427.6428,298.168 A6.25,6.25 0 0 1 431.8095,302.3346 L439.1012,318.9688 L659.375,318.9688 A4.1667,4.1667 0 0 1 663.5417,323.1354 L663.5417,389.8034 A4.1667,4.1667 0 0 1 659.375,393.9701 L383.3333,393.9701 A4.1667,4.1667 0 0 1 379.1667,389.8034 L379.1667,302.3346 A4.1667,4.1667 0 0 1 383.3333,298.168" fill="none" style="stroke:#59B6EC;stroke-width:2.0833;"/><line style="stroke:#59B6EC;stroke-width:2.0833;" x1="379.1667" x2="439.1012" y1="318.9688" y2="318.9688"/><text fill="#2FA4E7" font-family="'Verdana'" font-size="12.5" font-weight="700" lengthAdjust="spacing" textLength="46.3928" x="383.3333" y="311.8541">hooks/</text></g><!--cluster src/redux/--><g class="cluster" data-qualified-name="src.redux." data-source-line="27" id="ent0015"><path d="M275,497.0951 L343.6137,497.0951 A6.25,6.25 0 0 1 347.7804,501.2617 L355.072,517.8958 L784.375,517.8958 A4.1667,4.1667 0 0 1 788.5417,522.0625 L788.5417,655.3971 A4.1667,4.1667 0 0 1 784.375,659.5638 L275,659.5638 A4.1667,4.1667 0 0 1 270.8333,655.3971 L270.8333,501.2617 A4.1667,4.1667 0 0 1 275,497.0951" fill="none" style="stroke:#59B6EC;stroke-width:2.0833;"/><line style="stroke:#59B6EC;stroke-width:2.0833;" x1="270.8333" x2="355.072" y1="517.8958" y2="517.8958"/><text fill="#2FA4E7" font-family="'Verdana'" font-size="12.5" font-weight="700" lengthAdjust="spacing" textLength="70.697" x="275" y="510.7812">src/redux/</text></g><!--cluster ducks/--><g class="cluster" data-qualified-name="src.redux..ducks." data-source-line="28" id="ent0016"><path d="M634.375,538.7617 L677.8666,538.7617 A6.25,6.25 0 0 1 682.0333,542.9284 L689.325,559.5625 L759.375,559.5625 A4.1667,4.1667 0 0 1 763.5417,563.7292 L763.5417,630.3971 A4.1667,4.1667 0 0 1 759.375,634.5638 L634.375,634.5638 A4.1667,4.1667 0 0 1 630.2083,630.3971 L630.2083,542.9284 A4.1667,4.1667 0 0 1 634.375,538.7617" fill="none" style="stroke:#59B6EC;stroke-width:2.0833;"/><line style="stroke:#59B6EC;stroke-width:2.0833;" x1="630.2083" x2="689.325" y1="559.5625" y2="559.5625"/><text fill="#2FA4E7" font-family="'Verdana'" font-size="12.5" font-weight="700" lengthAdjust="spacing" textLength="45.575" x="634.375" y="552.4478">ducks/</text></g><!--cluster thunks/--><g class="cluster" data-qualified-name="src.redux..thunks." data-source-line="31" id="ent0018"><path d="M300,538.7617 L350.9074,538.7617 A6.25,6.25 0 0 1 355.0741,542.9284 L362.3657,559.5625 L601.0417,559.5625 A4.1667,4.1667 0 0 1 605.2083,563.7292 L605.2083,630.3971 A4.1667,4.1667 0 0 1 601.0417,634.5638 L300,634.5638 A4.1667,4.1667 0 0 1 295.8333,630.3971 L295.8333,542.9284 A4.1667,4.1667 0 0 1 300,538.7617" fill="none" style="stroke:#59B6EC;stroke-width:2.0833;"/><line style="stroke:#59B6EC;stroke-width:2.0833;" x1="295.8333" x2="362.3657" y1="559.5625" y2="559.5625"/><text fill="#2FA4E7" font-family="'Verdana'" font-size="12.5" font-weight="700" lengthAdjust="spacing" textLength="52.9907" x="300" y="552.4478">thunks/</text></g><!--cluster src/http/--><g class="cluster" data-qualified-name="src.http." data-source-line="37" id="ent0021"><path d="M351.0417,708.5221 L408.901,708.5221 A6.25,6.25 0 0 1 413.0676,712.6888 L420.3593,729.3229 L540.625,729.3229 A4.1667,4.1667 0 0 1 544.7917,733.4896 L544.7917,917.7617 A4.1667,4.1667 0 0 1 540.625,921.9284 L351.0417,921.9284 A4.1667,4.1667 0 0 1 346.875,917.7617 L346.875,712.6888 A4.1667,4.1667 0 0 1 351.0417,708.5221" fill="none" style="stroke:#59B6EC;stroke-width:2.0833;"/><line style="stroke:#59B6EC;stroke-width:2.0833;" x1="346.875" x2="420.3593" y1="729.3229" y2="729.3229"/><text fill="#2FA4E7" font-family="'Verdana'" font-size="12.5" font-weight="700" lengthAdjust="spacing" textLength="59.9426" x="351.0417" y="722.2083">src/http/</text></g><!--cluster src/utils/validator/--><g class="cluster" data-qualified-name="src.utils.validator." data-source-line="46" id="ent0026"><path d="M1519.7917,298.168 L1646.5658,298.168 A6.25,6.25 0 0 1 1650.7324,302.3346 L1658.0241,318.9688 L1678.125,318.9688 A4.1667,4.1667 0 0 1 1682.2917,323.1354 L1682.2917,627.2513 A4.1667,4.1667 0 0 1 1678.125,631.418 L1519.7917,631.418 A4.1667,4.1667 0 0 1 1515.625,627.2513 L1515.625,302.3346 A4.1667,4.1667 0 0 1 1519.7917,298.168" fill="none" style="stroke:#59B6EC;stroke-width:2.0833;"/><line style="stroke:#59B6EC;stroke-width:2.0833;" x1="1515.625" x2="1658.0241" y1="318.9688" y2="318.9688"/><text fill="#2FA4E7" font-family="'Verdana'" font-size="12.5" font-weight="700" lengthAdjust="spacing" textLength="128.8574" x="1519.7917" y="311.8541">src/utils/validator/</text></g><!--cluster src/navigation/--><g class="cluster" data-qualified-name="src.navigation." data-source-line="54" id="ent0031"><path d="M1711.4583,290.8867 L1814.4165,290.8867 A6.25,6.25 0 0 1 1818.5832,295.0534 L1825.8748,311.6875 L1903.125,311.6875 A4.1667,4.1667 0 0 1 1907.2917,315.8542 L1907.2917,397.0742 A4.1667,4.1667 0 0 1 1903.125,401.2409 L1711.4583,401.2409 A4.1667,4.1667 0 0 1 1707.2917,397.0742 L1707.2917,295.0534 A4.1667,4.1667 0 0 1 1711.4583,290.8867" fill="none" style="stroke:#59B6EC;stroke-width:2.0833;"/><line style="stroke:#59B6EC;stroke-width:2.0833;" x1="1707.2917" x2="1825.8748" y1="311.6875" y2="311.6875"/><text fill="#2FA4E7" font-family="'Verdana'" font-size="12.5" font-weight="700" lengthAdjust="spacing" textLength="105.0415" x="1711.4583" y="304.5728">src/navigation/</text></g><!--cluster src/translations/--><g class="cluster" data-qualified-name="src.translations." data-source-line="58" id="ent0033"><path d="M935.4167,524.2096 L1048.2992,524.2096 A6.25,6.25 0 0 1 1052.4658,528.3763 L1059.7575,545.0104 L1104.1667,545.0104 A4.1667,4.1667 0 0 1 1108.3333,549.1771 L1108.3333,644.9388 A4.1667,4.1667 0 0 1 1104.1667,649.1055 L935.4167,649.1055 A4.1667,4.1667 0 0 1 931.25,644.9388 L931.25,528.3763 A4.1667,4.1667 0 0 1 935.4167,524.2096" fill="none" style="stroke:#59B6EC;stroke-width:2.0833;"/><line style="stroke:#59B6EC;stroke-width:2.0833;" x1="931.25" x2="1059.7575" y1="545.0104" y2="545.0104"/><text fill="#2FA4E7" font-family="'Verdana'" font-size="12.5" font-weight="700" lengthAdjust="spacing" textLength="114.9658" x="935.4167" y="537.8958">src/translations/</text></g><!--entity AuthCard--><g class="entity" data-qualified-name="src.components..AuthCard" data-source-line="5" id="ent0002"><rect fill="url(#g1u6puy5oj2uuc1)" height="45.8008" rx="4.1667" ry="4.1667" style="stroke:#2FA4E7;stroke-width:1.0417;" width="100.4252" x="128.9583" y="331.5013"/><rect fill="url(#g1u6puy5oj2uuc1)" height="10.4167" style="stroke:#2FA4E7;stroke-width:1.0417;" width="15.625" x="208.5502" y="336.7096"/><rect fill="url(#g1u6puy5oj2uuc1)" height="2.0833" style="stroke:#2FA4E7;stroke-width:1.0417;" width="4.1667" x="206.4669" y="338.793"/><rect fill="url(#g1u6puy5oj2uuc1)" height="2.0833" style="stroke:#2FA4E7;stroke-width:1.0417;" width="4.1667" x="206.4669" y="342.9596"/><text fill="#FFFFFF" font-family="'Verdana'" font-size="12.5" lengthAdjust="spacing" textLength="58.7585" x="144.5833" y="363.9374">AuthCard</text></g><g class="entity" data-qualified-name="src.components..GMN3" data-source-line="7" id="ent0004"><path d="M32.8125,572.1263 L32.8125,617.862 A4.1667,4.1667 0 0 0 36.9792,622.0286 L225.5147,622.0286 A4.1667,4.1667 0 0 0 229.6814,617.862 L229.6814,578.3763 L219.2647,567.9596 L140.6979,567.9596 L174.7396,377.4492 L132.3646,567.9596 L36.9792,567.9596 A4.1667,4.1667 0 0 0 32.8125,572.1263" fill="url(#g1u6puy5oj2uuc2)" style="stroke:#033C73;stroke-width:1.0417;"/><path d="M219.2647,567.9596 L219.2647,576.293 A2.0833,2.0833 0 0 0 221.3481,578.3763 L229.6814,578.3763 L219.2647,567.9596" fill="url(#g1u6puy5oj2uuc2)" style="stroke:#033C73;stroke-width:1.0417;"/><text fill="#FFFFFF" font-family="'Verdana'" font-size="12.5" lengthAdjust="spacing" textLength="120.7214" x="39.0625" y="584.7708">Shared UI primitive</text><text fill="#FFFFFF" font-family="'Verdana'" font-size="12.5" lengthAdjust="spacing" textLength="174.9939" x="39.0625" y="599.3215">white card + logo + paw bg</text><text fill="#FFFFFF" font-family="'Verdana'" font-size="12.5" lengthAdjust="spacing" textLength="101.5747" x="39.0625" y="613.8723">withTheme HOC</text></g><!--entity PwdInput--><g class="entity" data-qualified-name="src.features.auth..components..PwdInput" data-source-line="15" id="ent0008"><rect fill="url(#g1u6puy5oj2uuc1)" height="45.8008" rx="4.1667" ry="4.1667" style="stroke:#2FA4E7;stroke-width:1.0417;" width="133.2011" x="774.0208" y="331.5013"/><rect fill="url(#g1u6puy5oj2uuc1)" height="10.4167" style="stroke:#2FA4E7;stroke-width:1.0417;" width="15.625" x="886.3886" y="336.7096"/><rect fill="url(#g1u6puy5oj2uuc1)" height="2.0833" style="stroke:#2FA4E7;stroke-width:1.0417;" width="4.1667" x="884.3053" y="338.793"/><rect fill="url(#g1u6puy5oj2uuc1)" height="2.0833" style="stroke:#2FA4E7;stroke-width:1.0417;" width="4.1667" x="884.3053" y="342.9596"/><text fill="#FFFFFF" font-family="'Verdana'" font-size="12.5" lengthAdjust="spacing" textLength="91.5344" x="789.6458" y="363.9374">PasswordInput</text></g><!--entity LoginScr--><g class="entity" data-qualified-name="src.features.auth..screens..LoginScr" data-source-line="18" id="ent0010"><rect fill="url(#g1u6puy5oj2uuc1)" height="45.8008" rx="4.1667" ry="4.1667" style="stroke:#2FA4E7;stroke-width:1.0417;" width="118.8578" x="646.8229" y="150.293"/><rect fill="url(#g1u6puy5oj2uuc1)" height="10.4167" style="stroke:#2FA4E7;stroke-width:1.0417;" width="15.625" x="744.8474" y="155.5013"/><rect fill="url(#g1u6puy5oj2uuc1)" height="2.0833" style="stroke:#2FA4E7;stroke-width:1.0417;" width="4.1667" x="742.7641" y="157.5846"/><rect fill="url(#g1u6puy5oj2uuc1)" height="2.0833" style="stroke:#2FA4E7;stroke-width:1.0417;" width="4.1667" x="742.7641" y="161.7513"/><text fill="#FFFFFF" font-family="'Verdana'" font-size="12.5" lengthAdjust="spacing" textLength="77.1912" x="662.4479" y="182.7291">LoginScreen</text></g><!--entity RegScr--><g class="entity" data-qualified-name="src.features.auth..screens..RegScr" data-source-line="19" id="ent0011"><rect fill="url(#g1u6puy5oj2uuc1)" height="45.8008" rx="4.1667" ry="4.1667" style="stroke:#2FA4E7;stroke-width:1.0417;" width="136.9425" x="802.3646" y="150.293"/><rect fill="url(#g1u6puy5oj2uuc1)" height="10.4167" style="stroke:#2FA4E7;stroke-width:1.0417;" width="15.625" x="918.4738" y="155.5013"/><rect fill="url(#g1u6puy5oj2uuc1)" height="2.0833" style="stroke:#2FA4E7;stroke-width:1.0417;" width="4.1667" x="916.3905" y="157.5846"/><rect fill="url(#g1u6puy5oj2uuc1)" height="2.0833" style="stroke:#2FA4E7;stroke-width:1.0417;" width="4.1667" x="916.3905" y="161.7513"/><text fill="#FFFFFF" font-family="'Verdana'" font-size="12.5" lengthAdjust="spacing" textLength="95.2759" x="817.9896" y="182.7291">RegisterScreen</text></g><!--entity UseLogin--><g class="entity" data-qualified-name="src.features.auth..hooks..UseLogin" data-source-line="22" id="ent0013"><rect fill="url(#g1u6puy5oj2uuc1)" height="45.8008" rx="4.1667" ry="4.1667" style="stroke:#2FA4E7;stroke-width:1.0417;" width="97.7336" x="395.9271" y="331.5013"/><rect fill="url(#g1u6puy5oj2uuc1)" height="10.4167" style="stroke:#2FA4E7;stroke-width:1.0417;" width="15.625" x="472.8273" y="336.7096"/><rect fill="url(#g1u6puy5oj2uuc1)" height="2.0833" style="stroke:#2FA4E7;stroke-width:1.0417;" width="4.1667" x="470.744" y="338.793"/><rect fill="url(#g1u6puy5oj2uuc1)" height="2.0833" style="stroke:#2FA4E7;stroke-width:1.0417;" width="4.1667" x="470.744" y="342.9596"/><text fill="#FFFFFF" font-family="'Verdana'" font-size="12.5" lengthAdjust="spacing" textLength="56.0669" x="411.5521" y="363.9374">useLogin</text></g><!--entity UseRegister--><g class="entity" data-qualified-name="src.features.auth..hooks..UseRegister" data-source-line="23" id="ent0014"><rect fill="url(#g1u6puy5oj2uuc1)" height="45.8008" rx="4.1667" ry="4.1667" style="stroke:#2FA4E7;stroke-width:1.0417;" width="115.8183" x="530.6354" y="331.5013"/><rect fill="url(#g1u6puy5oj2uuc1)" height="10.4167" style="stroke:#2FA4E7;stroke-width:1.0417;" width="15.625" x="625.6204" y="336.7096"/><rect fill="url(#g1u6puy5oj2uuc1)" height="2.0833" style="stroke:#2FA4E7;stroke-width:1.0417;" width="4.1667" x="623.537" y="338.793"/><rect fill="url(#g1u6puy5oj2uuc1)" height="2.0833" style="stroke:#2FA4E7;stroke-width:1.0417;" width="4.1667" x="623.537" y="342.9596"/><text fill="#FFFFFF" font-family="'Verdana'" font-size="12.5" lengthAdjust="spacing" textLength="74.1516" x="546.2604" y="363.9374">useRegister</text></g><!--entity AuthSlice--><g class="entity" data-qualified-name="src.redux..ducks..AuthSlice" data-source-line="29" id="ent0017"><rect fill="url(#g1u6puy5oj2uuc1)" height="45.8008" rx="4.1667" ry="4.1667" style="stroke:#2FA4E7;stroke-width:1.0417;" width="99.5158" x="647.1146" y="572.0951"/><rect fill="url(#g1u6puy5oj2uuc1)" height="10.4167" style="stroke:#2FA4E7;stroke-width:1.0417;" width="15.625" x="725.797" y="577.3034"/><rect fill="url(#g1u6puy5oj2uuc1)" height="2.0833" style="stroke:#2FA4E7;stroke-width:1.0417;" width="4.1667" x="723.7137" y="579.3867"/><rect fill="url(#g1u6puy5oj2uuc1)" height="2.0833" style="stroke:#2FA4E7;stroke-width:1.0417;" width="4.1667" x="723.7137" y="583.5534"/><text fill="#FFFFFF" font-family="'Verdana'" font-size="12.5" lengthAdjust="spacing" textLength="57.8491" x="662.7396" y="604.5312">authSlice</text></g><!--entity LoginThunk--><g class="entity" data-qualified-name="src.redux..thunks..LoginThunk" data-source-line="32" id="ent0019"><rect fill="url(#g1u6puy5oj2uuc1)" height="45.8008" rx="4.1667" ry="4.1667" style="stroke:#2FA4E7;stroke-width:1.0417;" width="110.7585" x="312.3333" y="572.0951"/><rect fill="url(#g1u6puy5oj2uuc1)" height="10.4167" style="stroke:#2FA4E7;stroke-width:1.0417;" width="15.625" x="402.2585" y="577.3034"/><rect fill="url(#g1u6puy5oj2uuc1)" height="2.0833" style="stroke:#2FA4E7;stroke-width:1.0417;" width="4.1667" x="400.1751" y="579.3867"/><rect fill="url(#g1u6puy5oj2uuc1)" height="2.0833" style="stroke:#2FA4E7;stroke-width:1.0417;" width="4.1667" x="400.1751" y="583.5534"/><text fill="#FFFFFF" font-family="'Verdana'" font-size="12.5" lengthAdjust="spacing" textLength="69.0918" x="327.9583" y="604.5312">loginThunk</text></g><!--entity RegThunk--><g class="entity" data-qualified-name="src.redux..thunks..RegThunk" data-source-line="33" id="ent0020"><rect fill="url(#g1u6puy5oj2uuc1)" height="45.8008" rx="4.1667" ry="4.1667" style="stroke:#2FA4E7;stroke-width:1.0417;" width="128.7882" x="459.5625" y="572.0951"/><rect fill="url(#g1u6puy5oj2uuc1)" height="10.4167" style="stroke:#2FA4E7;stroke-width:1.0417;" width="15.625" x="567.5174" y="577.3034"/><rect fill="url(#g1u6puy5oj2uuc1)" height="2.0833" style="stroke:#2FA4E7;stroke-width:1.0417;" width="4.1667" x="565.4341" y="579.3867"/><rect fill="url(#g1u6puy5oj2uuc1)" height="2.0833" style="stroke:#2FA4E7;stroke-width:1.0417;" width="4.1667" x="565.4341" y="583.5534"/><text fill="#FFFFFF" font-family="'Verdana'" font-size="12.5" lengthAdjust="spacing" textLength="87.1216" x="475.1875" y="604.5312">registerThunk</text></g><!--entity AuthSvc--><g class="entity" data-qualified-name="src.http..AuthSvc" data-source-line="38" id="ent0022"><rect fill="url(#g1u6puy5oj2uuc1)" height="45.8008" rx="4.1667" ry="4.1667" style="stroke:#2FA4E7;stroke-width:1.0417;" width="116.2699" x="387.6979" y="741.8555"/><rect fill="url(#g1u6puy5oj2uuc1)" height="10.4167" style="stroke:#2FA4E7;stroke-width:1.0417;" width="15.625" x="483.1345" y="747.0638"/><rect fill="url(#g1u6puy5oj2uuc1)" height="2.0833" style="stroke:#2FA4E7;stroke-width:1.0417;" width="4.1667" x="481.0512" y="749.1471"/><rect fill="url(#g1u6puy5oj2uuc1)" height="2.0833" style="stroke:#2FA4E7;stroke-width:1.0417;" width="4.1667" x="481.0512" y="753.3138"/><text fill="#FFFFFF" font-family="'Verdana'" font-size="12.5" lengthAdjust="spacing" textLength="74.6033" x="403.3229" y="774.2916">authService</text></g><g class="entity" data-qualified-name="src.http..GMN23" data-source-line="40" id="ent0024"><path d="M363.3229,855.3555 L363.3229,901.0911 A4.1667,4.1667 0 0 0 367.4896,905.2578 L524.1709,905.2578 A4.1667,4.1667 0 0 0 528.3376,901.0911 L528.3376,861.6055 L517.9209,851.1888 L450,851.1888 L445.8333,788.0638 L441.6667,851.1888 L367.4896,851.1888 A4.1667,4.1667 0 0 0 363.3229,855.3555" fill="url(#g1u6puy5oj2uuc2)" style="stroke:#033C73;stroke-width:1.0417;"/><path d="M517.9209,851.1888 L517.9209,859.5221 A2.0833,2.0833 0 0 0 520.0042,861.6055 L528.3376,861.6055 L517.9209,851.1888" fill="url(#g1u6puy5oj2uuc2)" style="stroke:#033C73;stroke-width:1.0417;"/><text fill="#FFFFFF" font-family="'Verdana'" font-size="12.5" lengthAdjust="spacing" textLength="58.8989" x="369.5729" y="867.9999">Singleton</text><text fill="#FFFFFF" font-family="'Verdana'" font-size="12.5" lengthAdjust="spacing" textLength="127.356" x="369.5729" y="882.5507">extends HttpService</text><text fill="#FFFFFF" font-family="'Verdana'" font-size="12.5" lengthAdjust="spacing" textLength="143.1396" x="369.5729" y="897.1015">uses AxiosHttpAdapter</text></g><!--entity Validators--><g class="entity" data-qualified-name="src.utils.validator..Validators" data-source-line="47" id="ent0027"><rect fill="url(#g1u6puy5oj2uuc1)" height="45.8008" rx="4.1667" ry="4.1667" style="stroke:#2FA4E7;stroke-width:1.0417;" width="133.0241" x="1532.4479" y="331.5013"/><rect fill="url(#g1u6puy5oj2uuc1)" height="10.4167" style="stroke:#2FA4E7;stroke-width:1.0417;" width="15.625" x="1644.6387" y="336.7096"/><rect fill="url(#g1u6puy5oj2uuc1)" height="2.0833" style="stroke:#2FA4E7;stroke-width:1.0417;" width="4.1667" x="1642.5553" y="338.793"/><rect fill="url(#g1u6puy5oj2uuc1)" height="2.0833" style="stroke:#2FA4E7;stroke-width:1.0417;" width="4.1667" x="1642.5553" y="342.9596"/><text fill="#FFFFFF" font-family="'Verdana'" font-size="12.5" lengthAdjust="spacing" textLength="91.3574" x="1548.0729" y="363.9374">authValidators</text></g><g class="entity" data-qualified-name="src.utils.validator..GMN28" data-source-line="49" id="ent0029"><path d="M1534.8438,579.3971 L1534.8438,610.582 A4.1667,4.1667 0 0 0 1539.0104,614.7487 L1658.8997,614.7487 A4.1667,4.1667 0 0 0 1663.0664,610.582 L1663.0664,585.6471 L1652.6497,575.2305 L1603.125,575.2305 L1598.9583,377.4492 L1594.7917,575.2305 L1539.0104,575.2305 A4.1667,4.1667 0 0 0 1534.8438,579.3971" fill="url(#g1u6puy5oj2uuc2)" style="stroke:#033C73;stroke-width:1.0417;"/><path d="M1652.6497,575.2305 L1652.6497,583.5638 A2.0833,2.0833 0 0 0 1654.7331,585.6471 L1663.0664,585.6471 L1652.6497,575.2305" fill="url(#g1u6puy5oj2uuc2)" style="stroke:#033C73;stroke-width:1.0417;"/><text fill="#FFFFFF" font-family="'Verdana'" font-size="12.5" lengthAdjust="spacing" textLength="89.8376" x="1541.0938" y="592.0416">Pure functions</text><text fill="#FFFFFF" font-family="'Verdana'" font-size="12.5" lengthAdjust="spacing" textLength="106.3477" x="1541.0938" y="606.5924">Return i18n keys</text></g><!--entity NavTypes--><g class="entity" data-qualified-name="src.navigation..NavTypes" data-source-line="55" id="ent0032"><rect fill="url(#g1u6puy5oj2uuc1)" height="60.3516" rx="4.1667" ry="4.1667" style="stroke:#2FA4E7;stroke-width:1.0417;" width="167.5944" x="1723.4896" y="324.2201"/><rect fill="url(#g1u6puy5oj2uuc1)" height="10.4167" style="stroke:#2FA4E7;stroke-width:1.0417;" width="15.625" x="1870.2507" y="329.4284"/><rect fill="url(#g1u6puy5oj2uuc1)" height="2.0833" style="stroke:#2FA4E7;stroke-width:1.0417;" width="4.1667" x="1868.1673" y="331.5117"/><rect fill="url(#g1u6puy5oj2uuc1)" height="2.0833" style="stroke:#2FA4E7;stroke-width:1.0417;" width="4.1667" x="1868.1673" y="335.6784"/><text fill="#FFFFFF" font-family="'Verdana'" font-size="12.5" lengthAdjust="spacing" textLength="57.2205" x="1739.1146" y="356.6562">types.tsx</text><text fill="#FFFFFF" font-family="'Verdana'" font-size="12.5" lengthAdjust="spacing" textLength="125.9277" x="1739.1146" y="371.2069">AuthStackParamList</text></g><!--entity I18n--><g class="entity" data-qualified-name="src.translations..I18n" data-source-line="59" id="ent0034"><rect fill="url(#g1u6puy5oj2uuc1)" height="74.9023" rx="4.1667" ry="4.1667" style="stroke:#2FA4E7;stroke-width:1.0417;" width="144.7611" x="947.4063" y="557.543"/><rect fill="url(#g1u6puy5oj2uuc1)" height="10.4167" style="stroke:#2FA4E7;stroke-width:1.0417;" width="15.625" x="1071.3341" y="562.7513"/><rect fill="url(#g1u6puy5oj2uuc1)" height="2.0833" style="stroke:#2FA4E7;stroke-width:1.0417;" width="4.1667" x="1069.2507" y="564.8346"/><rect fill="url(#g1u6puy5oj2uuc1)" height="2.0833" style="stroke:#2FA4E7;stroke-width:1.0417;" width="4.1667" x="1069.2507" y="569.0013"/><text fill="#FFFFFF" font-family="'Verdana'" font-size="12.5" lengthAdjust="spacing" textLength="42.3645" x="963.0313" y="589.9791">pt.json</text><text fill="#FFFFFF" font-family="'Verdana'" font-size="12.5" lengthAdjust="spacing" textLength="80.5115" x="963.0313" y="604.5299">AUTH_LOGIN</text><text fill="#FFFFFF" font-family="'Verdana'" font-size="12.5" lengthAdjust="spacing" textLength="103.0945" x="963.0313" y="619.0806">AUTH_REGISTER</text></g><!--link LoginScr to AuthCard--><g class="link" data-entity-1="ent0010" data-entity-2="ent0002" data-link-type="dependency" data-source-line="63" id="lnk35"><path d="M646.6042,174.8138 C537.6563,176.918 311.7604,186.4909 247.9167,229.4284 C212.1875,253.4596 194.6498,297.5576 186.2019,326.2139" fill="none" id="LoginScr-to-AuthCard" style="stroke:#2FA4E7;stroke-width:3.125;"/><polygon fill="#2FA4E7" points="184.7292,331.2096,191.3768,323.3955,186.2019,326.2139,183.3835,321.039,184.7292,331.2096" style="stroke:#2FA4E7;stroke-width:3.125;stroke-linejoin:miter;stroke-miterlimit:10;"/><text fill="#343A40" font-family="'Verdana'" font-size="12.5" lengthAdjust="spacing" textLength="22.0947" x="248.9583" y="256.6562">usa</text></g><!--link RegScr to AuthCard--><g class="link" data-entity-1="ent0011" data-entity-2="ent0002" data-link-type="dependency" data-source-line="64" id="lnk36"><path d="M838.7188,196.4076 C823.0625,205.9388 803.5208,216.0326 784.375,221.0951 C741.2917,232.5013 426.125,216.9805 383.3333,229.4284 C312.8646,249.9388 246.292,298.0525 209.417,327.8233" fill="none" id="RegScr-to-AuthCard" style="stroke:#2FA4E7;stroke-width:3.125;"/><polygon fill="#2FA4E7" points="205.3646,331.0951,215.2764,328.4479,209.417,327.8233,210.0416,321.964,205.3646,331.0951" style="stroke:#2FA4E7;stroke-width:3.125;stroke-linejoin:miter;stroke-miterlimit:10;"/><text fill="#343A40" font-family="'Verdana'" font-size="12.5" lengthAdjust="spacing" textLength="22.0947" x="384.375" y="256.6562">usa</text></g><!--link LoginScr to PwdInput--><g class="link" data-entity-1="ent0010" data-entity-2="ent0008" data-link-type="dependency" data-source-line="65" id="lnk37"><path d="M646.3542,181.2513 C615.8646,188.1992 581.3542,202.0013 562.5,229.4284 C551.2292,245.8346 549.0104,259.5846 562.5,274.2201 C570.1354,282.5117 652.5729,279.9701 663.5417,282.5534 C710.1146,293.5221 755.8095,312.4697 790.8929,328.8031" fill="none" id="LoginScr-to-PwdInput" style="stroke:#2FA4E7;stroke-width:3.125;"/><polygon fill="#2FA4E7" points="795.6146,331.0013,788.8741,323.2671,790.8929,328.8031,785.3569,330.8219,795.6146,331.0013" style="stroke:#2FA4E7;stroke-width:3.125;stroke-linejoin:miter;stroke-miterlimit:10;"/><text fill="#343A40" font-family="'Verdana'" font-size="12.5" lengthAdjust="spacing" textLength="73.5291" x="563.5417" y="256.6562">usa (senha)</text></g><!--link RegScr to PwdInput--><g class="link" data-entity-1="ent0011" data-entity-2="ent0008" data-link-type="dependency" data-source-line="66" id="lnk38"><path d="M867.0729,196.5638 C861.2604,230.9805 851.0652,291.4803 845.2527,325.8969" fill="none" id="RegScr-to-PwdInput" style="stroke:#2FA4E7;stroke-width:3.125;"/><polygon fill="#2FA4E7" points="844.3854,331.0326,850.0551,322.4823,845.2527,325.8969,841.8381,321.0946,844.3854,331.0326" style="stroke:#2FA4E7;stroke-width:3.125;stroke-linejoin:miter;stroke-miterlimit:10;"/><text fill="#343A40" font-family="'Verdana'" font-size="12.5" lengthAdjust="spacing" textLength="152.3804" x="861.4583" y="256.6562">usa (senha + confirmar)</text></g><!--link LoginScr to UseLogin--><g class="link" data-entity-1="ent0010" data-entity-2="ent0013" data-link-type="dependency" data-source-line="69" id="lnk39"><path d="M646.3438,177.4805 C573,182.8451 455.1875,196.4701 428.125,229.4284 C404.4271,258.293 417.8746,299.6068 430.708,326.7005" fill="none" id="LoginScr-to-UseLogin" style="stroke:#2FA4E7;stroke-width:3.125;stroke-dasharray:7.2917,7.2917;"/><polygon fill="#2FA4E7" points="432.9375,331.4076,432.6899,321.1513,430.708,326.7005,425.1587,324.7186,432.9375,331.4076" style="stroke:#2FA4E7;stroke-width:3.125;stroke-linejoin:miter;stroke-miterlimit:10;"/><text fill="#343A40" font-family="'Verdana'" font-size="12.5" lengthAdjust="spacing" textLength="57.6233" x="457.7952" y="249.3645">injeta via</text><text fill="#343A40" font-family="'Verdana'" font-size="12.5" lengthAdjust="spacing" textLength="114.8804" x="429.1667" y="263.9153">withPropsInjection</text></g><!--link RegScr to UseRegister--><g class="link" data-entity-1="ent0011" data-entity-2="ent0014" data-link-type="dependency" data-source-line="70" id="lnk40"><path d="M836.3333,196.5117 C820.9896,205.4701 802.3438,215.0742 784.375,221.0951 C760.8438,228.9805 751.6563,218.9492 729.1667,229.4284 C677.5521,253.4909 634.1711,298.6007 609.744,327.2465" fill="none" id="RegScr-to-UseRegister" style="stroke:#2FA4E7;stroke-width:3.125;stroke-dasharray:7.2917,7.2917;"/><polygon fill="#2FA4E7" points="606.3646,331.2096,615.6181,326.7796,609.744,327.2465,609.2771,321.3725,606.3646,331.2096" style="stroke:#2FA4E7;stroke-width:3.125;stroke-linejoin:miter;stroke-miterlimit:10;"/><text fill="#343A40" font-family="'Verdana'" font-size="12.5" lengthAdjust="spacing" textLength="57.6233" x="758.8369" y="249.3645">injeta via</text><text fill="#343A40" font-family="'Verdana'" font-size="12.5" lengthAdjust="spacing" textLength="114.8804" x="730.2083" y="263.9153">withPropsInjection</text></g><!--link UseLogin to AuthSlice--><g class="link" data-entity-1="ent0013" data-entity-2="ent0017" data-link-type="dependency" data-source-line="73" id="lnk41"><path d="M426.9688,377.418 C406.8333,405.0013 380.1667,452.1367 407.2917,480.4284 C422.5208,496.3138 585.375,479.2201 605.2083,488.7617 C642.1042,506.4909 667.5987,542.1684 682.4529,567.4184" fill="none" id="UseLogin-to-AuthSlice" style="stroke:#2FA4E7;stroke-width:3.125;"/><polygon fill="#2FA4E7" points="685.0938,571.9076,683.9315,561.7144,682.4529,567.4184,676.7488,565.9398,685.0938,571.9076" style="stroke:#2FA4E7;stroke-width:3.125;stroke-linejoin:miter;stroke-miterlimit:10;"/><text fill="#343A40" font-family="'Verdana'" font-size="12.5" lengthAdjust="spacing" textLength="97.8943" x="428.7038" y="455.5728">useAppSelector</text><text fill="#343A40" font-family="'Verdana'" font-size="12.5" lengthAdjust="spacing" textLength="138.6353" x="408.3333" y="470.1236">(isLoading, loginError)</text></g><!--link UseLogin to LoginThunk--><g class="link" data-entity-1="ent0013" data-entity-2="ent0019" data-link-type="dependency" data-source-line="74" id="lnk42"><path d="M395.4896,369.8034 C363.8854,381.8555 325.3333,402.5326 306.25,435.6367 C279.9583,481.2305 316.8366,536.2399 343.6179,567.7712" fill="none" id="UseLogin-to-LoginThunk" style="stroke:#2FA4E7;stroke-width:3.125;"/><polygon fill="#2FA4E7" points="346.9896,571.7409,344.0963,561.8981,343.6179,567.7712,337.7448,567.2928,346.9896,571.7409" style="stroke:#2FA4E7;stroke-width:3.125;stroke-linejoin:miter;stroke-miterlimit:10;"/><text fill="#343A40" font-family="'Verdana'" font-size="12.5" lengthAdjust="spacing" textLength="53.2104" x="307.2917" y="462.8645">dispatch</text></g><!--link UseRegister to AuthSlice--><g class="link" data-entity-1="ent0014" data-entity-2="ent0017" data-link-type="dependency" data-source-line="75" id="lnk43"><path d="M600.3125,377.7201 C608.6458,393.7096 619.9271,415.8346 629.1667,435.6367 C651.5417,483.5846 673.3774,536.0847 685.9399,566.8972" fill="none" id="UseRegister-to-AuthSlice" style="stroke:#2FA4E7;stroke-width:3.125;"/><polygon fill="#2FA4E7" points="687.9063,571.7201,688.2252,561.4658,685.9399,566.8972,680.5085,564.6119,687.9063,571.7201" style="stroke:#2FA4E7;stroke-width:3.125;stroke-linejoin:miter;stroke-miterlimit:10;"/><text fill="#343A40" font-family="'Verdana'" font-size="12.5" lengthAdjust="spacing" textLength="97.8943" x="677.892" y="448.2812">useAppSelector</text><text fill="#343A40" font-family="'Verdana'" font-size="12.5" lengthAdjust="spacing" textLength="155.7617" x="648.9583" y="462.8319">(isLoading, registerError,</text><text fill="#343A40" font-family="'Verdana'" font-size="12.5" lengthAdjust="spacing" textLength="103.6743" x="675.002" y="477.3827">registerSuccess)</text></g><!--link UseRegister to RegThunk--><g class="link" data-entity-1="ent0014" data-entity-2="ent0020" data-link-type="dependency" data-source-line="76" id="lnk44"><path d="M582.5833,377.4492 C570.3125,422.7721 543.6939,521.0467 531.3606,566.6197" fill="none" id="UseRegister-to-RegThunk" style="stroke:#2FA4E7;stroke-width:3.125;"/><polygon fill="#2FA4E7" points="530,571.6471,536.471,563.6861,531.3606,566.6197,528.4271,561.5092,530,571.6471" style="stroke:#2FA4E7;stroke-width:3.125;stroke-linejoin:miter;stroke-miterlimit:10;"/><text fill="#343A40" font-family="'Verdana'" font-size="12.5" lengthAdjust="spacing" textLength="53.2104" x="566.6667" y="462.8645">dispatch</text></g><!--link LoginThunk to AuthSvc--><g class="link" data-entity-1="ent0019" data-entity-2="ent0022" data-link-type="dependency" data-source-line="79" id="lnk45"><path d="M362.4063,618.3867 C358.7813,638.5117 356.2917,668.4284 366.6667,691.8555 C375.6146,712.043 389.1812,725.8604 405.6083,738.2146" fill="none" id="LoginThunk-to-AuthSvc" style="stroke:#2FA4E7;stroke-width:3.125;"/><polygon fill="#2FA4E7" points="409.7708,741.3451,404.7826,732.3801,405.6083,738.2146,399.7739,739.0402,409.7708,741.3451" style="stroke:#2FA4E7;stroke-width:3.125;stroke-linejoin:miter;stroke-miterlimit:10;"/><text fill="#343A40" font-family="'Verdana'" font-size="12.5" lengthAdjust="spacing" textLength="109.4727" x="367.7083" y="688.8749">login(credentials)</text></g><!--link RegThunk to AuthSvc--><g class="link" data-entity-1="ent0020" data-entity-2="ent0022" data-link-type="dependency" data-source-line="80" id="lnk46"><path d="M514.7292,618.2721 C506.5208,637.8034 494.0313,666.9076 482.2917,691.8555 C474.3646,708.6888 467.2305,722.7941 459.9076,736.9191" fill="none" id="RegThunk-to-AuthSvc" style="stroke:#2FA4E7;stroke-width:3.125;"/><polygon fill="#2FA4E7" points="457.5104,741.543,465.5245,735.1377,459.9076,736.9191,458.1263,731.3022,457.5104,741.543" style="stroke:#2FA4E7;stroke-width:3.125;stroke-linejoin:miter;stroke-miterlimit:10;"/><text fill="#343A40" font-family="'Verdana'" font-size="12.5" lengthAdjust="spacing" textLength="107.9407" x="489.5833" y="688.8749">register(payload)</text></g><!--link LoginScr to Validators--><g class="link" data-entity-1="ent0010" data-entity-2="ent0027" data-link-type="dependency" data-source-line="83" id="lnk47"><path d="M735.3646,196.543 C749.3958,205.9805 766.9271,215.9596 784.375,221.0951 C811.4792,229.0846 1013.1354,217.0534 1038.5417,229.4284 C1061.8854,240.8034 1052.625,263.0117 1076.0417,274.2201 C1118.9583,294.7721 1459.1667,267.1159 1504.1667,282.5534 C1532.7292,292.3555 1555.9554,310.6623 1573.7887,327.5268" fill="none" id="LoginScr-to-Validators" style="stroke:#2FA4E7;stroke-width:3.125;"/><polygon fill="#2FA4E7" points="1577.5729,331.1055,1573.6243,321.6366,1573.7887,327.5268,1567.8985,327.6913,1577.5729,331.1055" style="stroke:#2FA4E7;stroke-width:3.125;stroke-linejoin:miter;stroke-miterlimit:10;"/><text fill="#343A40" font-family="'Verdana'" font-size="12.5" lengthAdjust="spacing" textLength="84.8694" x="1110.9945" y="242.0728">validateEmail</text><text fill="#343A40" font-family="'Verdana'" font-size="12.5" lengthAdjust="spacing" textLength="106.6589" x="1100.0997" y="256.6236">validateRequired</text><text fill="#343A40" font-family="'Verdana'" font-size="12.5" lengthAdjust="spacing" textLength="152.6917" x="1077.0833" y="271.1744">validatePasswordLength</text></g><!--link RegScr to Validators--><g class="link" data-entity-1="ent0011" data-entity-2="ent0027" data-link-type="dependency" data-source-line="84" id="lnk48"><path d="M939.4792,175.6888 C1072.5,179.3346 1360.2604,191.4701 1451.0417,229.4284 C1505.4375,252.1784 1551.5138,298.3134 1577.1388,327.3759" fill="none" id="RegScr-to-Validators" style="stroke:#2FA4E7;stroke-width:3.125;"/><polygon fill="#2FA4E7" points="1580.5833,331.2826,1577.5084,321.495,1577.1388,327.3759,1571.2578,327.0063,1580.5833,331.2826" style="stroke:#2FA4E7;stroke-width:3.125;stroke-linejoin:miter;stroke-miterlimit:10;"/><text fill="#343A40" font-family="'Verdana'" font-size="12.5" lengthAdjust="spacing" textLength="130.4016" x="1531.4646" y="249.3645">validateNameLength</text><text fill="#343A40" font-family="'Verdana'" font-size="12.5" lengthAdjust="spacing" textLength="147.4976" x="1522.9167" y="263.9153">validatePasswordMatch</text></g><!--link LoginScr to NavTypes--><g class="link" data-entity-1="ent0010" data-entity-2="ent0032" data-link-type="dependency" data-source-line="87" id="lnk49"><path d="M734.9688,196.418 C749.0417,205.9388 766.7396,216.043 784.375,221.0951 C832.4479,234.8867 1185.9896,216.7721 1234.375,229.4284 C1275.0521,240.0742 1277.0521,263.4909 1317.7083,274.2201 C1396.0625,294.8971 1604.1667,261.0117 1682.2917,282.5534 C1712.7083,290.9492 1739.2326,305.4715 1762.6909,320.909" fill="none" id="LoginScr-to-NavTypes" style="stroke:#2FA4E7;stroke-width:3.125;"/><polygon fill="#2FA4E7" points="1767.0417,323.7721,1761.5008,315.1379,1762.6909,320.909,1756.9198,322.0991,1767.0417,323.7721" style="stroke:#2FA4E7;stroke-width:3.125;stroke-linejoin:miter;stroke-miterlimit:10;"/><text fill="#343A40" font-family="'Verdana'" font-size="12.5" lengthAdjust="spacing" textLength="123.291" x="1318.75" y="256.6562">navigate('Register')</text></g><!--link RegScr to NavTypes--><g class="link" data-entity-1="ent0011" data-entity-2="ent0032" data-link-type="dependency" data-source-line="88" id="lnk50"><path d="M939.6979,176.2409 C1122.8438,181.9388 1612.4896,199.7826 1679.1667,229.4284 C1724.9792,249.8034 1760.9652,289.8739 1783.5277,319.5926" fill="none" id="RegScr-to-NavTypes" style="stroke:#2FA4E7;stroke-width:3.125;"/><polygon fill="#2FA4E7" points="1786.6771,323.7409,1784.3268,313.7545,1783.5277,319.5926,1777.6896,318.7935,1786.6771,323.7409" style="stroke:#2FA4E7;stroke-width:3.125;stroke-linejoin:miter;stroke-miterlimit:10;"/><text fill="#343A40" font-family="'Verdana'" font-size="12.5" lengthAdjust="spacing" textLength="55.6824" x="1742.7083" y="256.6562">goBack()</text></g><!--link LoginScr to I18n--><g class="link" data-entity-1="ent0010" data-entity-2="ent0034" data-link-type="dependency" data-source-line="91" id="lnk51"><path d="M735.3854,196.4909 C749.4063,205.918 766.9479,215.8971 784.375,221.0951 C806.9063,227.8138 978.9896,213.0221 995.8333,229.4284 C1007.4583,240.7617 1015.646,461.9415 1018.5314,552.129" fill="none" id="LoginScr-to-I18n" style="stroke:#2FA4E7;stroke-width:3.125;"/><polygon fill="#2FA4E7" points="1018.6979,557.3346,1022.5627,547.8312,1018.5314,552.129,1014.2336,548.0977,1018.6979,557.3346" style="stroke:#2FA4E7;stroke-width:3.125;stroke-linejoin:miter;stroke-miterlimit:10;"/><text fill="#343A40" font-family="'Verdana'" font-size="12.5" lengthAdjust="spacing" textLength="189.209" x="1013.5417" y="359.2291">useTranslation('AUTH_LOGIN')</text></g><!--link RegScr to I18n--><g class="link" data-entity-1="ent0011" data-entity-2="ent0034" data-link-type="dependency" data-source-line="92" id="lnk52"><path d="M939.8125,176.3763 C1076.3854,181.3034 1370.6979,195.7721 1401.0417,229.4284 C1414.3646,244.2201 1414.5104,259.5638 1401.0417,274.2201 C1386.1042,290.4701 1320.7396,270.7721 1302.0833,282.5534 C1239.1354,322.3346 1265.6458,370.3138 1217.7083,427.3034 C1174.9167,478.1784 1119.6468,522.8468 1077.0947,554.076" fill="none" id="RegScr-to-I18n" style="stroke:#2FA4E7;stroke-width:3.125;"/><polygon fill="#2FA4E7" points="1072.8958,557.1576,1082.9191,554.9698,1077.0947,554.076,1077.9886,548.2516,1072.8958,557.1576" style="stroke:#2FA4E7;stroke-width:3.125;stroke-linejoin:miter;stroke-miterlimit:10;"/><text fill="#343A40" font-family="'Verdana'" font-size="12.5" lengthAdjust="spacing" textLength="211.792" x="1303.125" y="359.2291">useTranslation('AUTH_REGISTER')</text></g><!--link PwdInput to I18n--><g class="link" data-entity-1="ent0008" data-entity-2="ent0034" data-link-type="dependency" data-source-line="93" id="lnk53"><path d="M843.8958,377.4388 C848.6354,403.793 859.375,448.3971 881.25,480.4284 C902.0313,510.8555 929.0288,534.4023 956.5809,554.1731" fill="none" id="PwdInput-to-I18n" style="stroke:#2FA4E7;stroke-width:3.125;"/><polygon fill="#2FA4E7" points="960.8125,557.2096,955.6248,548.3587,956.5809,554.1731,950.7664,555.1292,960.8125,557.2096" style="stroke:#2FA4E7;stroke-width:3.125;stroke-linejoin:miter;stroke-miterlimit:10;"/><text fill="#343A40" font-family="'Verdana'" font-size="12.5" lengthAdjust="spacing" textLength="109.967" x="882.2917" y="462.8645">accessibilityLabel</text></g><?plantuml-src bLNDRkCs4BxhAQQvn47pUolsi82RTJT67SUmbLxgOZ6H9X8JcLH9oacm2B2dVO2YJxXFqY4bwYTsj-Z9vlnyyyrmFke7czE6825T5OGoii8M1EFAvd2jKhR1joz_mrZ_MGbBjj88AS6bsfHAahHaO1IFLx-U_BAycSUJ-OUJy_EBeoWgCNd4ZE30wEGi2T7cx00-Hm2_E_XBrEaVW0R2WHrIMO8xPQtQWBhlUm1MEMfAuNOAfHOROSMMlFqfPsAGS1Zy28NA5F-K-0HtMUqMDezzYrStbsmXcVeoqUiRblU4t1wPC-Ig3T4sOAS5RcA1nZmfdKvbMLdVoUAfFh3_jPzj4aqaUwapbGcvybQV6CwrTqcPC9PqBu1DjNk0colrs4Ej37aWdt7R75fNG0tUSFQWRuV1awwUtmuXhP9-EJUdLI4IQc_HdzwIj7ab-sc5OnKxOzUwFzPktT3g8fXeyEyIpQqjmrPvGgIt0qhRPFzUrGvUAo6pWgog1qNFbXV4m1N3Db3UplDZl6UXZFECKophoVthDbLM5EPiYuL8qIhTf_XRC1hFiZlk4Xtu01Qydt1VoSGA9MlJqcbIWhZuIS8ZlPZlSPAu5Hcwt437lfHaJgrvNai_4ylX2zIucV4TU7PptCOkQ0VCQfIcy6Yjh4jx-c2KPB3R-EhJxERZTDxyNqu-JbVnPEanfqpMuHqwCNjb6U5meY03E3bvtueVtl7qCQeLiCypo0eIh7qmCYHpFEfdxutWDoDHybxe3UeZnumV2tuwD2z7Xtzw-hwL5MSB-K0MOIjmBTqhiz2gD5Cs-ki99PkaeBR_pdF5dQxXszU_-7fPXr5RD7JlXUORe779Yrfmhj9hEH9cfZ1briVWTJRHMd530u1ESOoG2bEYJVAep_7_b0bwzPMErpASLrMIa357Ey11pltYtBEtrKrVnV4Ywh5iwMmJJl9zZVXfJFav5bWOVxlx8WELKOal1VFr5zj8QcVTEgbnPgDRccnG56iPZalYho0NxYpX6p0ZcTcylsPxyUQueJfq5-8wJ6BUodJ8C4YHyHebq-WmZFPmiEEzq4pzpB8T-TxTAp74T5AiBpZkz3mwxFGxnFrUU90uPxGIw-MWNmTn9mfXNsPuHyK_?></g></svg>