<svg xmlns="http://www.w3.org/2000/svg" xmlns:xlink="http://www.w3.org/1999/xlink" contentStyleType="text/css" data-diagram-type="SEQUENCE" height="1401.0417px" preserveAspectRatio="none" style="width:1502px;height:1401px;" version="1.1" viewBox="0 0 1502 1401" width="1502.0833px" zoomAndPan="magnify"><?plantuml 1.2026.5?><defs><linearGradient id="gitkynfbtsnbx0" x1="50%" x2="50%" y1="0%" y2="100%"><stop offset="0%" stop-color="#EDF0F2"/><stop offset="100%" stop-color="#E9ECEF"/></linearGradient><linearGradient id="gitkynfbtsnbx1" x1="50%" x2="50%" y1="0%" y2="100%"><stop offset="0%" stop-color="#59B6EC"/><stop offset="100%" stop-color="#2FA4E7"/></linearGradient><linearGradient id="gitkynfbtsnbx2" x1="50%" x2="50%" y1="0%" y2="100%"><stop offset="0%" stop-color="#FFFFFF"/><stop offset="100%" stop-color="#F8F9FA"/></linearGradient><linearGradient id="gitkynfbtsnbx3" x1="50%" x2="50%" y1="0%" y2="100%"><stop offset="0%" stop-color="#35638F"/><stop offset="100%" stop-color="#033C73"/></linearGradient></defs><g><g class="title" data-source-line="2"><rect fill="url(#gitkynfbtsnbx0)" height="36.7513" rx="4.1667" ry="4.1667" style="stroke:#BABDBF;stroke-width:1.0417;" width="425.352" x="537.4557" y="20.8333"/><text fill="#2FA4E7" font-family="'Verdana'" font-size="20.8333" font-weight="700" lengthAdjust="spacing" textLength="412.852" x="543.7057" y="46.4213">Login Flow &#8212; TASK-FRONTEND-001</text></g><g><title>useLogin</title><rect fill="#EDF0F2" height="415.1042" style="stroke:#2683B9;stroke-width:1.0417;" width="10.4167" x="600.1556" y="566.4714"/></g><g><title>loginThunk</title><rect fill="#EDF0F2" height="226.7904" style="stroke:#2683B9;stroke-width:1.0417;" width="10.4167" x="775.1251" y="725.651"/></g><g><title>authSlice</title><rect fill="#EDF0F2" height="100.9115" style="stroke:#2683B9;stroke-width:1.0417;" width="10.4167" x="1091.568" y="595.6055"/></g><g><title>authSlice</title><rect fill="#EDF0F2" height="64.4857" style="stroke:#2683B9;stroke-width:1.0417;" width="10.4167" x="1091.568" y="851.5299"/></g><g><title>authSlice</title><rect fill="#EDF0F2" height="49.9349" style="stroke:#2683B9;stroke-width:1.0417;" width="10.4167" x="1091.568" y="1149.0885"/></g><g><title>AuthService</title><rect fill="#EDF0F2" height="53.0599" style="stroke:#2683B9;stroke-width:1.0417;" width="10.4167" x="1399.2055" y="769.3359"/></g><rect fill="none" height="869.7591" rx="4.1667" ry="4.1667" style="stroke:#59B6EC;stroke-width:1.0417;" width="1459.6385" x="20.8333" y="425"/><rect fill="none" height="502.5065" rx="4.1667" ry="4.1667" style="stroke:#59B6EC;stroke-width:1.0417;" width="1438.8051" x="31.25" y="784.9609"/><g class="participant-lifeline" data-entity-uid="part1" data-qualified-name="User" data-source-line="4" id="part1-lifeline"><g><title>. Usu.rio</title><rect fill="#000000" fill-opacity="0.00000" height="1165.332" width="8.3333" x="70.1141" y="147.1354"/><line style="stroke:#BABDBF;stroke-width:1.0417;stroke-dasharray:5.2083,5.2083;" x1="73.9583" x2="73.9583" y1="147.1354" y2="1312.4674"/></g></g><g class="participant-lifeline" data-entity-uid="part2" data-qualified-name="Screen" data-source-line="5" id="part2-lifeline"><g><title>LoginScreen</title><rect fill="#000000" fill-opacity="0.00000" height="1165.332" width="8.3333" x="340.5223" y="147.1354"/><line style="stroke:#BABDBF;stroke-width:1.0417;stroke-dasharray:5.2083,5.2083;" x1="344.635" x2="344.635" y1="147.1354" y2="1312.4674"/></g></g><g class="participant-lifeline" data-entity-uid="part3" data-qualified-name="Hook" data-source-line="6" id="part3-lifeline"><g><title>useLogin</title><rect fill="#000000" fill-opacity="0.00000" height="1165.332" width="8.3333" x="601.1973" y="147.1354"/><line style="stroke:#BABDBF;stroke-width:1.0417;stroke-dasharray:5.2083,5.2083;" x1="604.4139" x2="604.4139" y1="147.1354" y2="1312.4674"/></g></g><g class="participant-lifeline" data-entity-uid="part4" data-qualified-name="Thunk" data-source-line="7" id="part4-lifeline"><g><title>loginThunk</title><rect fill="#000000" fill-opacity="0.00000" height="1165.332" width="8.3333" x="776.1668" y="147.1354"/><line style="stroke:#BABDBF;stroke-width:1.0417;stroke-dasharray:5.2083,5.2083;" x1="780.1626" x2="780.1626" y1="147.1354" y2="1312.4674"/></g></g><g class="participant-lifeline" data-entity-uid="part5" data-qualified-name="Slice" data-source-line="8" id="part5-lifeline"><g><title>authSlice</title><rect fill="#000000" fill-opacity="0.00000" height="1165.332" width="8.3333" x="1092.6097" y="147.1354"/><line style="stroke:#BABDBF;stroke-width:1.0417;stroke-dasharray:5.2083,5.2083;" x1="1095.9768" x2="1095.9768" y1="147.1354" y2="1312.4674"/></g></g><g class="participant-lifeline" data-entity-uid="part6" data-qualified-name="API" data-source-line="9" id="part6-lifeline"><g><title>AuthService</title><rect fill="#000000" fill-opacity="0.00000" height="1165.332" width="8.3333" x="1400.2472" y="147.1354"/><line style="stroke:#BABDBF;stroke-width:1.0417;stroke-dasharray:5.2083,5.2083;" x1="1404.3976" x2="1404.3976" y1="147.1354" y2="1312.4674"/></g></g><g class="participant participant-head" data-entity-uid="part1" data-qualified-name="User" data-source-line="4" id="part1-head"><text fill="#343A40" font-family="'Verdana'" font-size="12.5" lengthAdjust="spacing" textLength="58.9783" x="41.6667" y="144.1874">&#128100; Usu&#225;rio</text><ellipse cx="74.2808" cy="78.418" fill="url(#gitkynfbtsnbx1)" rx="8.3333" ry="8.3333" style="stroke:#2FA4E7;stroke-width:1.0417;"/><path d="M74.2808,86.7513 L74.2808,114.8763 M60.7391,95.0846 L87.8225,95.0846 M74.2808,114.8763 L60.7391,130.5013 M74.2808,114.8763 L87.8225,130.5013" fill="none" style="stroke:#2FA4E7;stroke-width:1.0417;"/></g><g class="participant participant-tail" data-entity-uid="part1" data-qualified-name="User" data-source-line="4" id="part1-tail"><text fill="#343A40" font-family="'Verdana'" font-size="12.5" lengthAdjust="spacing" textLength="58.9783" x="41.6667" y="1323.0286">&#128100; Usu&#225;rio</text><ellipse cx="74.2808" cy="1335.3516" fill="url(#gitkynfbtsnbx1)" rx="8.3333" ry="8.3333" style="stroke:#2FA4E7;stroke-width:1.0417;"/><path d="M74.2808,1343.6849 L74.2808,1371.8099 M60.7391,1352.0182 L87.8225,1352.0182 M74.2808,1371.8099 L60.7391,1387.4349 M74.2808,1371.8099 L87.8225,1387.4349" fill="none" style="stroke:#2FA4E7;stroke-width:1.0417;"/></g><g class="participant participant-head" data-entity-uid="part2" data-qualified-name="Screen" data-source-line="5" id="part2-head"><text fill="#343A40" font-family="'Verdana'" font-size="12.5" lengthAdjust="spacing" textLength="77.1912" x="302.9683" y="144.1874">LoginScreen</text><path d="M323.3348,103.418 L323.3348,128.418 M323.3348,115.918 L341.0431,115.918" fill="none" style="stroke:#2FA4E7;stroke-width:1.0417;"/><ellipse cx="353.5431" cy="115.918" fill="url(#gitkynfbtsnbx1)" rx="12.5" ry="12.5" style="stroke:#2FA4E7;stroke-width:1.0417;"/></g><g class="participant participant-tail" data-entity-uid="part2" data-qualified-name="Screen" data-source-line="5" id="part2-tail"><text fill="#343A40" font-family="'Verdana'" font-size="12.5" lengthAdjust="spacing" textLength="77.1912" x="302.9683" y="1323.0286">LoginScreen</text><path d="M323.3348,1330.1432 L323.3348,1355.1432 M323.3348,1342.6432 L341.0431,1342.6432" fill="none" style="stroke:#2FA4E7;stroke-width:1.0417;"/><ellipse cx="353.5431" cy="1342.6432" fill="url(#gitkynfbtsnbx1)" rx="12.5" ry="12.5" style="stroke:#2FA4E7;stroke-width:1.0417;"/></g><g class="participant participant-head" data-entity-uid="part3" data-qualified-name="Hook" data-source-line="6" id="part3-head"><text fill="#343A40" font-family="'Verdana'" font-size="12.5" lengthAdjust="spacing" textLength="56.0669" x="574.2055" y="144.1874">useLogin</text><ellipse cx="605.364" cy="115.918" fill="url(#gitkynfbtsnbx1)" rx="12.5" ry="12.5" style="stroke:#2FA4E7;stroke-width:1.0417;"/><polygon fill="#2FA4E7" points="601.1973,103.418,607.4473,98.2096,605.364,103.418,607.4473,108.6263,601.1973,103.418" style="stroke:#2FA4E7;stroke-width:1.0417;stroke-linejoin:miter;stroke-miterlimit:10;"/></g><g class="participant participant-tail" data-entity-uid="part3" data-qualified-name="Hook" data-source-line="6" id="part3-tail"><text fill="#343A40" font-family="'Verdana'" font-size="12.5" lengthAdjust="spacing" textLength="56.0669" x="574.2055" y="1323.0286">useLogin</text><ellipse cx="605.364" cy="1342.6432" fill="url(#gitkynfbtsnbx1)" rx="12.5" ry="12.5" style="stroke:#2FA4E7;stroke-width:1.0417;"/><polygon fill="#2FA4E7" points="601.1973,1330.1432,607.4473,1324.9349,605.364,1330.1432,607.4473,1335.3516,601.1973,1330.1432" style="stroke:#2FA4E7;stroke-width:1.0417;stroke-linejoin:miter;stroke-miterlimit:10;"/></g><g class="participant participant-head" data-entity-uid="part4" data-qualified-name="Thunk" data-source-line="7" id="part4-head"><text fill="#343A40" font-family="'Verdana'" font-size="12.5" lengthAdjust="spacing" textLength="69.0918" x="742.6626" y="144.1874">loginThunk</text><ellipse cx="780.3335" cy="115.918" fill="url(#gitkynfbtsnbx1)" rx="12.5" ry="12.5" style="stroke:#2FA4E7;stroke-width:1.0417;"/><polygon fill="#2FA4E7" points="776.1668,103.418,782.4168,98.2096,780.3335,103.418,782.4168,108.6263,776.1668,103.418" style="stroke:#2FA4E7;stroke-width:1.0417;stroke-linejoin:miter;stroke-miterlimit:10;"/></g><g class="participant participant-tail" data-entity-uid="part4" data-qualified-name="Thunk" data-source-line="7" id="part4-tail"><text fill="#343A40" font-family="'Verdana'" font-size="12.5" lengthAdjust="spacing" textLength="69.0918" x="742.6626" y="1323.0286">loginThunk</text><ellipse cx="780.3335" cy="1342.6432" fill="url(#gitkynfbtsnbx1)" rx="12.5" ry="12.5" style="stroke:#2FA4E7;stroke-width:1.0417;"/><polygon fill="#2FA4E7" points="776.1668,1330.1432,782.4168,1324.9349,780.3335,1330.1432,782.4168,1335.3516,776.1668,1330.1432" style="stroke:#2FA4E7;stroke-width:1.0417;stroke-linejoin:miter;stroke-miterlimit:10;"/></g><g class="participant participant-head" data-entity-uid="part5" data-qualified-name="Slice" data-source-line="8" id="part5-head"><text fill="#343A40" font-family="'Verdana'" font-size="12.5" lengthAdjust="spacing" textLength="57.8491" x="1064.7268" y="129.6366">authSlice</text><text fill="#343A40" font-family="'Verdana'" font-size="12.5" lengthAdjust="spacing" textLength="49.3835" x="1068.9596" y="144.1874">(Redux)</text><ellipse cx="1096.7763" cy="101.3672" fill="url(#gitkynfbtsnbx1)" rx="12.5" ry="12.5" style="stroke:#2FA4E7;stroke-width:1.0417;"/><line style="stroke:#2FA4E7;stroke-width:1.0417;" x1="1084.2763" x2="1109.2763" y1="115.9505" y2="115.9505"/></g><g class="participant participant-tail" data-entity-uid="part5" data-qualified-name="Slice" data-source-line="8" id="part5-tail"><text fill="#343A40" font-family="'Verdana'" font-size="12.5" lengthAdjust="spacing" textLength="57.8491" x="1064.7268" y="1323.0286">authSlice</text><text fill="#343A40" font-family="'Verdana'" font-size="12.5" lengthAdjust="spacing" textLength="49.3835" x="1068.9596" y="1337.5793">(Redux)</text><ellipse cx="1096.7763" cy="1357.194" fill="url(#gitkynfbtsnbx1)" rx="12.5" ry="12.5" style="stroke:#2FA4E7;stroke-width:1.0417;"/><line style="stroke:#2FA4E7;stroke-width:1.0417;" x1="1084.2763" x2="1109.2763" y1="1371.7773" y2="1371.7773"/></g><g class="participant participant-head" data-entity-uid="part6" data-qualified-name="API" data-source-line="9" id="part6-head"><text fill="#343A40" font-family="'Verdana'" font-size="12.5" lengthAdjust="spacing" textLength="75.4944" x="1363.5417" y="129.6366">AuthService</text><text fill="#343A40" font-family="'Verdana'" font-size="12.5" lengthAdjust="spacing" textLength="104.1992" x="1349.1892" y="144.1874">POST /auth/login</text><path d="M1385.6639,80.5339 C1385.6639,70.1172 1404.4139,70.1172 1404.4139,70.1172 C1404.4139,70.1172 1423.1639,70.1172 1423.1639,80.5339 L1423.1639,107.6172 C1423.1639,118.0339 1404.4139,118.0339 1404.4139,118.0339 C1404.4139,118.0339 1385.6639,118.0339 1385.6639,107.6172 L1385.6639,80.5339" fill="url(#gitkynfbtsnbx1)" style="stroke:#2FA4E7;stroke-width:1.0417;"/><path d="M1385.6639,80.5339 C1385.6639,90.9505 1404.4139,90.9505 1404.4139,90.9505 C1404.4139,90.9505 1423.1639,90.9505 1423.1639,80.5339" fill="none" style="stroke:#2FA4E7;stroke-width:1.0417;"/></g><g class="participant participant-tail" data-entity-uid="part6" data-qualified-name="API" data-source-line="9" id="part6-tail"><text fill="#343A40" font-family="'Verdana'" font-size="12.5" lengthAdjust="spacing" textLength="75.4944" x="1363.5417" y="1323.0286">AuthService</text><text fill="#343A40" font-family="'Verdana'" font-size="12.5" lengthAdjust="spacing" textLength="104.1992" x="1349.1892" y="1337.5793">POST /auth/login</text><path d="M1385.6639,1350.944 C1385.6639,1340.5273 1404.4139,1340.5273 1404.4139,1340.5273 C1404.4139,1340.5273 1423.1639,1340.5273 1423.1639,1350.944 L1423.1639,1378.0273 C1423.1639,1388.444 1404.4139,1388.444 1404.4139,1388.444 C1404.4139,1388.444 1385.6639,1388.444 1385.6639,1378.0273 L1385.6639,1350.944" fill="url(#gitkynfbtsnbx1)" style="stroke:#2FA4E7;stroke-width:1.0417;"/><path d="M1385.6639,1350.944 C1385.6639,1361.3607 1404.4139,1361.3607 1404.4139,1361.3607 C1404.4139,1361.3607 1423.1639,1361.3607 1423.1639,1350.944" fill="none" style="stroke:#2FA4E7;stroke-width:1.0417;"/></g><g><title>useLogin</title><rect fill="#EDF0F2" height="415.1042" style="stroke:#2683B9;stroke-width:1.0417;" width="10.4167" x="600.1556" y="566.4714"/></g><g><title>loginThunk</title><rect fill="#EDF0F2" height="226.7904" style="stroke:#2683B9;stroke-width:1.0417;" width="10.4167" x="775.1251" y="725.651"/></g><g><title>authSlice</title><rect fill="#EDF0F2" height="100.9115" style="stroke:#2683B9;stroke-width:1.0417;" width="10.4167" x="1091.568" y="595.6055"/></g><g><title>authSlice</title><rect fill="#EDF0F2" height="64.4857" style="stroke:#2683B9;stroke-width:1.0417;" width="10.4167" x="1091.568" y="851.5299"/></g><g><title>authSlice</title><rect fill="#EDF0F2" height="49.9349" style="stroke:#2683B9;stroke-width:1.0417;" width="10.4167" x="1091.568" y="1149.0885"/></g><g><title>AuthService</title><rect fill="#EDF0F2" height="53.0599" style="stroke:#2683B9;stroke-width:1.0417;" width="10.4167" x="1399.2055" y="769.3359"/></g><rect fill="url(#gitkynfbtsnbx2)" height="3.125" rx="4.1667" ry="4.1667" style="stroke:url(#gitkynfbtsnbx2);stroke-width:1.0417;" width="1480.4718" x="10.4167" y="178.3691"/><line style="stroke:#868E96;stroke-width:1.0417;" x1="10.4167" x2="1490.8885" y1="178.3691" y2="178.3691"/><line style="stroke:#868E96;stroke-width:1.0417;" x1="10.4167" x2="1490.8885" y1="181.4941" y2="181.4941"/><rect fill="url(#gitkynfbtsnbx2)" height="22.8841" rx="4.1667" ry="4.1667" style="stroke:#868E96;stroke-width:2.0833;" width="113.9547" x="693.6752" y="167.9688"/><text fill="#343A40" font-family="'Verdana'" font-size="12.5" font-weight="700" lengthAdjust="spacing" textLength="95.0195" x="699.9252" y="183.7382">Renderiza&#231;&#227;o</text><g class="message" data-entity-1="part1" data-entity-2="part2" data-source-line="14" id="msg1"><polygon fill="#2FA4E7" points="332.1889,217.9036,342.6056,222.0703,332.1889,226.237,336.3556,222.0703" style="stroke:#2FA4E7;stroke-width:1.0417;stroke-linejoin:miter;stroke-miterlimit:10;"/><line style="stroke:#2FA4E7;stroke-width:3.125;" x1="74.2808" x2="338.4389" y1="222.0703" y2="222.0703"/><text fill="#343A40" font-family="'Verdana'" font-size="12.5" font-weight="700" lengthAdjust="spacing" textLength="8.6975" x="81.5725" y="217.039">1</text><text fill="#343A40" font-family="'Verdana'" font-size="12.5" lengthAdjust="spacing" textLength="172.3328" x="94.4366" y="217.039">Abre app (n&#227;o autenticado)</text></g><g class="message" data-entity-1="part2" data-entity-2="part2" data-source-line="15" id="msg2"><line style="stroke:#2FA4E7;stroke-width:3.125;" x1="344.6889" x2="388.4389" y1="251.2044" y2="251.2044"/><line style="stroke:#2FA4E7;stroke-width:3.125;" x1="388.4389" x2="388.4389" y1="251.2044" y2="264.7461"/><line style="stroke:#2FA4E7;stroke-width:3.125;" x1="345.7306" x2="388.4389" y1="264.7461" y2="264.7461"/><polygon fill="#2FA4E7" points="356.1473,260.5794,345.7306,264.7461,356.1473,268.9128,351.9806,264.7461" style="stroke:#2FA4E7;stroke-width:1.0417;stroke-linejoin:miter;stroke-miterlimit:10;"/><text fill="#343A40" font-family="'Verdana'" font-size="12.5" font-weight="700" lengthAdjust="spacing" textLength="8.6975" x="351.9806" y="246.1731">2</text><text fill="#343A40" font-family="'Verdana'" font-size="12.5" lengthAdjust="spacing" textLength="233.2275" x="364.8448" y="246.1731">Renderiza email, senha, bot&#227;o Entrar</text></g><rect fill="url(#gitkynfbtsnbx2)" height="3.125" rx="4.1667" ry="4.1667" style="stroke:url(#gitkynfbtsnbx2);stroke-width:1.0417;" width="1480.4718" x="10.4167" y="293.8965"/><line style="stroke:#868E96;stroke-width:1.0417;" x1="10.4167" x2="1490.8885" y1="293.8965" y2="293.8965"/><line style="stroke:#868E96;stroke-width:1.0417;" x1="10.4167" x2="1490.8885" y1="297.0215" y2="297.0215"/><rect fill="url(#gitkynfbtsnbx2)" height="22.8841" rx="4.1667" ry="4.1667" style="stroke:#868E96;stroke-width:2.0833;" width="259.9447" x="620.6802" y="283.4961"/><text fill="#343A40" font-family="'Verdana'" font-size="12.5" font-weight="700" lengthAdjust="spacing" textLength="241.0095" x="626.9302" y="299.2655">Valida&#231;&#227;o local (React Final Form)</text><g class="message" data-entity-1="part1" data-entity-2="part2" data-source-line="18" id="msg3"><polygon fill="#2FA4E7" points="332.1889,333.431,342.6056,337.5977,332.1889,341.7643,336.3556,337.5977" style="stroke:#2FA4E7;stroke-width:1.0417;stroke-linejoin:miter;stroke-miterlimit:10;"/><line style="stroke:#2FA4E7;stroke-width:3.125;" x1="74.2808" x2="338.4389" y1="337.5977" y2="337.5977"/><text fill="#343A40" font-family="'Verdana'" font-size="12.5" font-weight="700" lengthAdjust="spacing" textLength="8.6975" x="81.5725" y="332.5663">3</text><text fill="#343A40" font-family="'Verdana'" font-size="12.5" lengthAdjust="spacing" textLength="108.1787" x="94.4366" y="332.5663">Clica em "Entrar"</text></g><g class="message" data-entity-1="part2" data-entity-2="part2" data-source-line="19" id="msg4"><line style="stroke:#2FA4E7;stroke-width:3.125;" x1="344.6889" x2="388.4389" y1="395.8333" y2="395.8333"/><line style="stroke:#2FA4E7;stroke-width:3.125;" x1="388.4389" x2="388.4389" y1="395.8333" y2="409.375"/><line style="stroke:#2FA4E7;stroke-width:3.125;" x1="345.7306" x2="388.4389" y1="409.375" y2="409.375"/><polygon fill="#2FA4E7" points="356.1473,405.2083,345.7306,409.375,356.1473,413.5417,351.9806,409.375" style="stroke:#2FA4E7;stroke-width:1.0417;stroke-linejoin:miter;stroke-miterlimit:10;"/><text fill="#343A40" font-family="'Verdana'" font-size="12.5" font-weight="700" lengthAdjust="spacing" textLength="8.6975" x="351.9806" y="376.2512">4</text><text fill="#343A40" font-family="'Verdana'" font-size="12.5" lengthAdjust="spacing" textLength="124.4995" x="364.8448" y="361.7004">Dispara validadores</text><text fill="#343A40" font-family="'Verdana'" font-size="12.5" lengthAdjust="spacing" textLength="208.3252" x="364.8448" y="376.2512">(validateEmail, validateRequired,</text><text fill="#343A40" font-family="'Verdana'" font-size="12.5" lengthAdjust="spacing" textLength="157.5684" x="364.8448" y="390.802">validatePasswordLength)</text></g><path d="M25,425 L86.4034,425 L86.4034,431.2174 L75.9867,441.6341 L20.8333,441.6341 L20.8333,429.1667 A4.1667,4.1667 0 0 1 25,425" fill="#E9ECEF" style="stroke:#868E96;stroke-width:1.0417;"/><rect fill="none" height="869.7591" rx="4.1667" ry="4.1667" style="stroke:#59B6EC;stroke-width:1.0417;" width="1459.6385" x="20.8333" y="425"/><text fill="#033C73" font-family="'Verdana'" font-size="12.5" font-weight="700" lengthAdjust="spacing" textLength="18.6951" x="36.4583" y="437.6444">alt</text><text fill="#343A40" font-family="'Verdana'" font-size="12.5" font-weight="700" lengthAdjust="spacing" textLength="134.6985" x="102.0284" y="438.6861">[Campos inv&#225;lidos]</text><g class="message" data-entity-1="part2" data-entity-2="part1" data-source-line="22" id="msg5"><polygon fill="#2FA4E7" points="85.7391,472.819,75.3225,476.9857,85.7391,481.1523,81.5725,476.9857" style="stroke:#2FA4E7;stroke-width:1.0417;stroke-linejoin:miter;stroke-miterlimit:10;"/><line style="stroke:#2FA4E7;stroke-width:3.125;stroke-dasharray:2.0833,2.0833;" x1="79.4891" x2="343.6473" y1="476.9857" y2="476.9857"/><text fill="#343A40" font-family="'Verdana'" font-size="12.5" font-weight="700" lengthAdjust="spacing" textLength="8.6975" x="91.9891" y="464.679">5</text><text fill="#343A40" font-family="'Verdana'" font-size="12.5" lengthAdjust="spacing" textLength="153.8452" x="104.8533" y="457.4036">Exibe erros de valida&#231;&#227;o</text><text fill="#343A40" font-family="'Verdana'" font-size="12.5" lengthAdjust="spacing" textLength="161.0413" x="104.8533" y="471.9543">Nenhuma requisi&#231;&#227;o feita</text></g><line style="stroke:#59B6EC;stroke-width:1.0417;stroke-dasharray:2.0833,2.0833;" x1="20.8333" x2="1480.4718" y1="486.3607" y2="486.3607"/><text fill="#343A40" font-family="'Verdana'" font-size="12.5" font-weight="700" lengthAdjust="spacing" textLength="121.5149" x="26.0417" y="497.9635">[Campos v&#225;lidos]</text><rect fill="url(#gitkynfbtsnbx2)" height="3.125" rx="4.1667" ry="4.1667" style="stroke:url(#gitkynfbtsnbx2);stroke-width:1.0417;" width="1480.4718" x="10.4167" y="522.7702"/><line style="stroke:#868E96;stroke-width:1.0417;" x1="10.4167" x2="1490.8885" y1="522.7702" y2="522.7702"/><line style="stroke:#868E96;stroke-width:1.0417;" x1="10.4167" x2="1490.8885" y1="525.8952" y2="525.8952"/><rect fill="url(#gitkynfbtsnbx2)" height="22.8841" rx="4.1667" ry="4.1667" style="stroke:#868E96;stroke-width:2.0833;" width="94.9972" x="703.154" y="512.3698"/><text fill="#343A40" font-family="'Verdana'" font-size="12.5" font-weight="700" lengthAdjust="spacing" textLength="76.062" x="709.404" y="528.1392">Submiss&#227;o</text><g class="message" data-entity-1="part2" data-entity-2="part3" data-source-line="26" id="msg6"><polygon fill="#2FA4E7" points="587.6556,562.3047,598.0723,566.4714,587.6556,570.638,591.8223,566.4714" style="stroke:#2FA4E7;stroke-width:1.0417;stroke-linejoin:miter;stroke-miterlimit:10;"/><line style="stroke:#2FA4E7;stroke-width:3.125;" x1="344.6889" x2="593.9056" y1="566.4714" y2="566.4714"/><text fill="#343A40" font-family="'Verdana'" font-size="12.5" font-weight="700" lengthAdjust="spacing" textLength="8.6975" x="351.9806" y="561.44">6</text><text fill="#343A40" font-family="'Verdana'" font-size="12.5" lengthAdjust="spacing" textLength="195.5017" x="364.8448" y="561.44">onSubmit({ email, password })</text></g><g class="message" data-entity-1="part3" data-entity-2="part5" data-source-line="28" id="msg7"><polygon fill="#2FA4E7" points="1079.068,591.4388,1089.4847,595.6055,1079.068,599.7721,1083.2347,595.6055" style="stroke:#2FA4E7;stroke-width:1.0417;stroke-linejoin:miter;stroke-miterlimit:10;"/><line style="stroke:#2FA4E7;stroke-width:3.125;" x1="610.5723" x2="1085.318" y1="595.6055" y2="595.6055"/><text fill="#343A40" font-family="'Verdana'" font-size="12.5" font-weight="700" lengthAdjust="spacing" textLength="8.6975" x="617.864" y="590.5741">7</text><text fill="#343A40" font-family="'Verdana'" font-size="12.5" lengthAdjust="spacing" textLength="211.0779" x="630.7281" y="590.5741">dispatch(loginThunk(credentials))</text></g><g class="message" data-entity-1="part5" data-entity-2="part5" data-source-line="30" id="msg8"><line style="stroke:#2FA4E7;stroke-width:3.125;" x1="1101.9847" x2="1145.7347" y1="639.2904" y2="639.2904"/><line style="stroke:#2FA4E7;stroke-width:3.125;" x1="1145.7347" x2="1145.7347" y1="639.2904" y2="652.832"/><line style="stroke:#2FA4E7;stroke-width:3.125;" x1="1103.0263" x2="1145.7347" y1="652.832" y2="652.832"/><polygon fill="#2FA4E7" points="1113.443,648.6654,1103.0263,652.832,1113.443,656.9987,1109.2763,652.832" style="stroke:#2FA4E7;stroke-width:1.0417;stroke-linejoin:miter;stroke-miterlimit:10;"/><text fill="#343A40" font-family="'Verdana'" font-size="12.5" font-weight="700" lengthAdjust="spacing" textLength="8.6975" x="1109.2763" y="626.9836">8</text><text fill="#343A40" font-family="'Verdana'" font-size="12.5" lengthAdjust="spacing" textLength="103.595" x="1122.1405" y="619.7083">isLoading = true</text><text fill="#343A40" font-family="'Verdana'" font-size="12.5" lengthAdjust="spacing" textLength="102.6245" x="1122.1405" y="634.259">loginError = null</text></g><g class="message" data-entity-1="part5" data-entity-2="part2" data-source-line="31" id="msg9"><polygon fill="#2FA4E7" points="356.1473,692.3503,345.7306,696.5169,356.1473,700.6836,351.9806,696.5169" style="stroke:#2FA4E7;stroke-width:1.0417;stroke-linejoin:miter;stroke-miterlimit:10;"/><line style="stroke:#2FA4E7;stroke-width:3.125;stroke-dasharray:2.0833,2.0833;" x1="349.8973" x2="1095.7347" y1="696.5169" y2="696.5169"/><text fill="#343A40" font-family="'Verdana'" font-size="12.5" font-weight="700" lengthAdjust="spacing" textLength="8.6975" x="362.3973" y="684.2102">9</text><text fill="#343A40" font-family="'Verdana'" font-size="12.5" lengthAdjust="spacing" textLength="103.595" x="375.2614" y="676.9348">isLoading = true</text><text fill="#343A40" font-family="'Verdana'" font-size="12.5" lengthAdjust="spacing" textLength="251.1292" x="375.2614" y="691.4856">&#8594; bot&#227;o desabilitado + ActivityIndicator</text></g><g class="message" data-entity-1="part3" data-entity-2="part4" data-source-line="34" id="msg10"><polygon fill="#2FA4E7" points="762.6251,721.4844,773.0418,725.651,762.6251,729.8177,766.7918,725.651" style="stroke:#2FA4E7;stroke-width:1.0417;stroke-linejoin:miter;stroke-miterlimit:10;"/><line style="stroke:#2FA4E7;stroke-width:3.125;" x1="610.5723" x2="768.8751" y1="725.651" y2="725.651"/><text fill="#343A40" font-family="'Verdana'" font-size="12.5" font-weight="700" lengthAdjust="spacing" textLength="17.395" x="617.864" y="720.6197">10</text><text fill="#343A40" font-family="'Verdana'" font-size="12.5" lengthAdjust="spacing" textLength="123.1995" x="639.4257" y="720.6197">loginThunk executa</text></g><g class="message" data-entity-1="part4" data-entity-2="part6" data-source-line="36" id="msg11"><polygon fill="#2FA4E7" points="1386.7055,765.1693,1397.1222,769.3359,1386.7055,773.5026,1390.8722,769.3359" style="stroke:#2FA4E7;stroke-width:1.0417;stroke-linejoin:miter;stroke-miterlimit:10;"/><line style="stroke:#2FA4E7;stroke-width:3.125;" x1="785.5418" x2="1392.9555" y1="769.3359" y2="769.3359"/><text fill="#343A40" font-family="'Verdana'" font-size="12.5" font-weight="700" lengthAdjust="spacing" textLength="17.395" x="792.8335" y="757.0292">11</text><text fill="#343A40" font-family="'Verdana'" font-size="12.5" lengthAdjust="spacing" textLength="104.1992" x="814.3951" y="749.7538">POST /auth/login</text><text fill="#343A40" font-family="'Verdana'" font-size="12.5" lengthAdjust="spacing" textLength="125.8362" x="814.3951" y="764.3046">{ email, password }</text></g><path d="M35.4167,784.9609 L96.8201,784.9609 L96.8201,791.1784 L86.4034,801.5951 L31.25,801.5951 L31.25,789.1276 A4.1667,4.1667 0 0 1 35.4167,784.9609" fill="#E9ECEF" style="stroke:#868E96;stroke-width:1.0417;"/><rect fill="none" height="502.5065" rx="4.1667" ry="4.1667" style="stroke:#59B6EC;stroke-width:1.0417;" width="1438.8051" x="31.25" y="784.9609"/><text fill="#033C73" font-family="'Verdana'" font-size="12.5" font-weight="700" lengthAdjust="spacing" textLength="18.6951" x="46.875" y="797.6054">alt</text><text fill="#343A40" font-family="'Verdana'" font-size="12.5" font-weight="700" lengthAdjust="spacing" textLength="62.1826" x="112.4451" y="798.6471">[200 OK]</text><g class="message" data-entity-1="part6" data-entity-2="part4" data-source-line="40" id="msg12"><polygon fill="#2FA4E7" points="797.0001,818.2292,786.5835,822.3958,797.0001,826.5625,792.8335,822.3958" style="stroke:#2FA4E7;stroke-width:1.0417;stroke-linejoin:miter;stroke-miterlimit:10;"/><line style="stroke:#2FA4E7;stroke-width:3.125;stroke-dasharray:2.0833,2.0833;" x1="790.7501" x2="1403.3722" y1="822.3958" y2="822.3958"/><text fill="#343A40" font-family="'Verdana'" font-size="12.5" font-weight="700" lengthAdjust="spacing" textLength="17.395" x="803.2501" y="817.3645">12</text><text fill="#343A40" font-family="'Verdana'" font-size="12.5" lengthAdjust="spacing" textLength="229.895" x="824.8118" y="817.3645">{ user, accessToken, refreshToken }</text></g><g class="message" data-entity-1="part4" data-entity-2="part5" data-source-line="42" id="msg13"><polygon fill="#2FA4E7" points="1079.068,847.3633,1089.4847,851.5299,1079.068,855.6966,1083.2347,851.5299" style="stroke:#2FA4E7;stroke-width:1.0417;stroke-linejoin:miter;stroke-miterlimit:10;"/><line style="stroke:#2FA4E7;stroke-width:3.125;stroke-dasharray:2.0833,2.0833;" x1="785.5418" x2="1085.318" y1="851.5299" y2="851.5299"/><text fill="#343A40" font-family="'Verdana'" font-size="12.5" font-weight="700" lengthAdjust="spacing" textLength="17.395" x="792.8335" y="846.4986">13</text><text fill="#343A40" font-family="'Verdana'" font-size="12.5" lengthAdjust="spacing" textLength="156.3232" x="814.3951" y="846.4986">loginThunk.fulfilled(user)</text></g><g class="message" data-entity-1="part5" data-entity-2="part5" data-source-line="44" id="msg14"><line style="stroke:#2FA4E7;stroke-width:3.125;" x1="1101.9847" x2="1145.7347" y1="914.974" y2="914.974"/><line style="stroke:#2FA4E7;stroke-width:3.125;" x1="1145.7347" x2="1145.7347" y1="914.974" y2="928.5156"/><line style="stroke:#2FA4E7;stroke-width:3.125;" x1="1096.7763" x2="1145.7347" y1="928.5156" y2="928.5156"/><polygon fill="#2FA4E7" points="1107.193,924.349,1096.7763,928.5156,1107.193,932.6823,1103.0263,928.5156" style="stroke:#2FA4E7;stroke-width:1.0417;stroke-linejoin:miter;stroke-miterlimit:10;"/><text fill="#343A40" font-family="'Verdana'" font-size="12.5" font-weight="700" lengthAdjust="spacing" textLength="17.395" x="1109.2763" y="895.3918">14</text><text fill="#343A40" font-family="'Verdana'" font-size="12.5" lengthAdjust="spacing" textLength="104.834" x="1130.838" y="880.8411">user = UserType</text><text fill="#343A40" font-family="'Verdana'" font-size="12.5" lengthAdjust="spacing" textLength="107.6782" x="1130.838" y="895.3918">isLoading = false</text><text fill="#343A40" font-family="'Verdana'" font-size="12.5" lengthAdjust="spacing" textLength="102.6245" x="1130.838" y="909.9426">loginError = null</text></g><g class="message" data-entity-1="part4" data-entity-2="part3" data-source-line="46" id="msg15"><polygon fill="#2FA4E7" points="622.0306,948.2747,611.614,952.4414,622.0306,956.6081,617.864,952.4414" style="stroke:#2FA4E7;stroke-width:1.0417;stroke-linejoin:miter;stroke-miterlimit:10;"/><line style="stroke:#2FA4E7;stroke-width:3.125;stroke-dasharray:2.0833,2.0833;" x1="615.7806" x2="779.2918" y1="952.4414" y2="952.4414"/><text fill="#343A40" font-family="'Verdana'" font-size="12.5" font-weight="700" lengthAdjust="spacing" textLength="17.395" x="628.2806" y="947.4101">15</text><text fill="#343A40" font-family="'Verdana'" font-size="12.5" lengthAdjust="spacing" textLength="46.2402" x="649.8423" y="947.4101">fulfilled</text></g><g class="message" data-entity-1="part3" data-entity-2="part2" data-source-line="48" id="msg16"><polygon fill="#2FA4E7" points="356.1473,977.4089,345.7306,981.5755,356.1473,985.7422,351.9806,981.5755" style="stroke:#2FA4E7;stroke-width:1.0417;stroke-linejoin:miter;stroke-miterlimit:10;"/><line style="stroke:#2FA4E7;stroke-width:3.125;stroke-dasharray:2.0833,2.0833;" x1="349.8973" x2="604.3223" y1="981.5755" y2="981.5755"/><text fill="#343A40" font-family="'Verdana'" font-size="12.5" font-weight="700" lengthAdjust="spacing" textLength="17.395" x="362.3973" y="976.5442">16</text><text fill="#343A40" font-family="'Verdana'" font-size="12.5" lengthAdjust="spacing" textLength="102.6245" x="383.9589" y="976.5442">loginError = null</text></g><path d="M261.4583,999.2839 L261.4583,1029.4922 A4.1667,4.1667 0 0 0 265.625,1033.6589 L422.9167,1033.6589 A4.1667,4.1667 0 0 0 427.0833,1029.4922 L427.0833,1005.5339 L416.6667,995.1172 L265.625,995.1172 A4.1667,4.1667 0 0 0 261.4583,999.2839" fill="url(#gitkynfbtsnbx3)" style="stroke:#033C73;stroke-width:1.0417;"/><path d="M416.6667,995.1172 L416.6667,1003.4505 A2.0833,2.0833 0 0 0 418.75,1005.5339 L427.0833,1005.5339 L416.6667,995.1172" fill="url(#gitkynfbtsnbx3)" style="stroke:#033C73;stroke-width:1.0417;"/><text fill="#FFFFFF" font-family="'Verdana'" font-size="12.5" lengthAdjust="spacing" textLength="130.9021" x="267.7083" y="1011.9283">Navega&#231;&#227;o p&#243;s-login</text><text fill="#FFFFFF" font-family="'Verdana'" font-size="12.5" lengthAdjust="spacing" textLength="144.5251" x="267.7083" y="1026.4791">(TASK-FRONTEND-003)</text><line style="stroke:#59B6EC;stroke-width:1.0417;stroke-dasharray:2.0833,2.0833;" x1="31.25" x2="1470.0551" y1="1040.8854" y2="1040.8854"/><text fill="#343A40" font-family="'Verdana'" font-size="12.5" font-weight="700" lengthAdjust="spacing" textLength="136.8652" x="36.4583" y="1052.4882">[401 Unauthorized]</text><g class="message" data-entity-1="part6" data-entity-2="part4" data-source-line="53" id="msg17"><polygon fill="#2FA4E7" points="791.7918,1073.112,781.3751,1077.2786,791.7918,1081.4453,787.6251,1077.2786" style="stroke:#2FA4E7;stroke-width:1.0417;stroke-linejoin:miter;stroke-miterlimit:10;"/><line style="stroke:#2FA4E7;stroke-width:3.125;stroke-dasharray:2.0833,2.0833;" x1="785.5418" x2="1403.3722" y1="1077.2786" y2="1077.2786"/><text fill="#343A40" font-family="'Verdana'" font-size="12.5" font-weight="700" lengthAdjust="spacing" textLength="17.395" x="798.0418" y="1072.2473">17</text><text fill="#343A40" font-family="'Verdana'" font-size="12.5" lengthAdjust="spacing" textLength="89.8376" x="819.6035" y="1072.2473">Erro HTTP 401</text></g><g class="message" data-entity-1="part4" data-entity-2="part4" data-source-line="55" id="msg18"><line style="stroke:#2FA4E7;stroke-width:3.125;" x1="780.3335" x2="824.0835" y1="1106.4128" y2="1106.4128"/><line style="stroke:#2FA4E7;stroke-width:3.125;" x1="824.0835" x2="824.0835" y1="1106.4128" y2="1119.9544"/><line style="stroke:#2FA4E7;stroke-width:3.125;" x1="781.3751" x2="824.0835" y1="1119.9544" y2="1119.9544"/><polygon fill="#2FA4E7" points="791.7918,1115.7878,781.3751,1119.9544,791.7918,1124.1211,787.6251,1119.9544" style="stroke:#2FA4E7;stroke-width:1.0417;stroke-linejoin:miter;stroke-miterlimit:10;"/><text fill="#343A40" font-family="'Verdana'" font-size="12.5" font-weight="700" lengthAdjust="spacing" textLength="17.395" x="787.6251" y="1101.3814">18</text><text fill="#343A40" font-family="'Verdana'" font-size="12.5" lengthAdjust="spacing" textLength="280.2979" x="809.1868" y="1101.3814">rejectWithValue('AUTH_LOGIN:errorGeneric')</text></g><g class="message" data-entity-1="part4" data-entity-2="part5" data-source-line="56" id="msg19"><polygon fill="#2FA4E7" points="1079.068,1144.9219,1089.4847,1149.0885,1079.068,1153.2552,1083.2347,1149.0885" style="stroke:#2FA4E7;stroke-width:1.0417;stroke-linejoin:miter;stroke-miterlimit:10;"/><line style="stroke:#2FA4E7;stroke-width:3.125;stroke-dasharray:2.0833,2.0833;" x1="780.3335" x2="1085.318" y1="1149.0885" y2="1149.0885"/><text fill="#343A40" font-family="'Verdana'" font-size="12.5" font-weight="700" lengthAdjust="spacing" textLength="17.395" x="787.6251" y="1144.0572">19</text><text fill="#343A40" font-family="'Verdana'" font-size="12.5" lengthAdjust="spacing" textLength="124.4568" x="809.1868" y="1144.0572">loginThunk.rejected</text></g><g class="message" data-entity-1="part5" data-entity-2="part5" data-source-line="58" id="msg20"><line style="stroke:#2FA4E7;stroke-width:3.125;" x1="1101.9847" x2="1145.7347" y1="1197.9818" y2="1197.9818"/><line style="stroke:#2FA4E7;stroke-width:3.125;" x1="1145.7347" x2="1145.7347" y1="1197.9818" y2="1211.5234"/><line style="stroke:#2FA4E7;stroke-width:3.125;" x1="1096.7763" x2="1145.7347" y1="1211.5234" y2="1211.5234"/><polygon fill="#2FA4E7" points="1107.193,1207.3568,1096.7763,1211.5234,1107.193,1215.6901,1103.0263,1211.5234" style="stroke:#2FA4E7;stroke-width:1.0417;stroke-linejoin:miter;stroke-miterlimit:10;"/><text fill="#343A40" font-family="'Verdana'" font-size="12.5" font-weight="700" lengthAdjust="spacing" textLength="17.395" x="1109.2763" y="1185.675">20</text><text fill="#343A40" font-family="'Verdana'" font-size="12.5" lengthAdjust="spacing" textLength="250.6592" x="1130.838" y="1178.3997">loginError = 'AUTH_LOGIN:errorGeneric'</text><text fill="#343A40" font-family="'Verdana'" font-size="12.5" lengthAdjust="spacing" textLength="107.6782" x="1130.838" y="1192.9504">isLoading = false</text></g><g class="message" data-entity-1="part3" data-entity-2="part2" data-source-line="61" id="msg21"><polygon fill="#2FA4E7" points="356.1473,1231.2826,345.7306,1235.4492,356.1473,1239.6159,351.9806,1235.4492" style="stroke:#2FA4E7;stroke-width:1.0417;stroke-linejoin:miter;stroke-miterlimit:10;"/><line style="stroke:#2FA4E7;stroke-width:3.125;stroke-dasharray:2.0833,2.0833;" x1="349.8973" x2="604.3223" y1="1235.4492" y2="1235.4492"/><text fill="#343A40" font-family="'Verdana'" font-size="12.5" font-weight="700" lengthAdjust="spacing" textLength="17.395" x="362.3973" y="1230.4179">21</text><text fill="#343A40" font-family="'Verdana'" font-size="12.5" lengthAdjust="spacing" textLength="107.6355" x="383.9589" y="1230.4179">loginError != null</text></g><g class="message" data-entity-1="part2" data-entity-2="part1" data-source-line="63" id="msg22"><polygon fill="#2FA4E7" points="85.7391,1274.9674,75.3225,1279.1341,85.7391,1283.3008,81.5725,1279.1341" style="stroke:#2FA4E7;stroke-width:1.0417;stroke-linejoin:miter;stroke-miterlimit:10;"/><line style="stroke:#2FA4E7;stroke-width:3.125;stroke-dasharray:2.0833,2.0833;" x1="79.4891" x2="343.6473" y1="1279.1341" y2="1279.1341"/><text fill="#343A40" font-family="'Verdana'" font-size="12.5" font-weight="700" lengthAdjust="spacing" textLength="17.395" x="91.9891" y="1266.8274">22</text><text fill="#343A40" font-family="'Verdana'" font-size="12.5" lengthAdjust="spacing" textLength="223.8464" x="113.5508" y="1259.552">Exibe t('AUTH_LOGIN:errorGeneric')</text><text fill="#343A40" font-family="'Verdana'" font-size="12.5" lengthAdjust="spacing" textLength="195.4468" x="113.5508" y="1274.1028">[testID="login-error-message"]</text></g><?plantuml-src dLLBRXj74DtFAShSc0EJCHrx9O0228co10kK88wSHHW4pUaYsLQpc-aF9SS8a5Ns2Rmt10V80Nm4taGdy15ItJCaHpHb4vxLT4rzNjLxrVF8JN2AaAFn4fbAd70IuLIFXO8ZgQ_Xxi_ta7Nwhvf75sUzhDixRBPQpvA4vKuRg7t-yFU_S6dzujO8NGDcwO0c6MglE3DleHOpzNE3gEBduZN9jN96IwXvYz4bVZpM-chzIGPxDl7gAdwCRmagGaXvcNUJlXGv3bJz0hc_IOlqmPHmvjYGMOHQ9xYXcKV7yxD-1az3v5EvgjavFw5klDFAJuS4FMctuG8LHoD-Pul_5XyrjDj9w0gQ-oLys8FEq22msGpgAhXGWe0iProdIUbKTLzb19mo8HjWKKrO0uRQXV0kjSoAsg-P5BmiB7NE951_D6qu4eeEHzfCqws83gZra1vgHRRQDXo7miwOOJ2FLRWsQ6c0nSbXjy2sF5xWRruOv8s1MfhEcRNNsl1JL6CtIMboqi41cywq1Q7cYrjoqpO1UfRLgNp4kWVT6p54G6F8cMDP9dOwK3sQXvyoCA6c5KN_8nIE9IY9oRB6ga8OLTyFfyBQag9gpVqe9IgfLNHozNVBmS_A3k2FD8RGQCMSEYl45omnD0mjQ8boy30pbq_gQq7MgGuFX3DfquqyXGGZcfYWaadOKysuK6DeWpEU91bJTcaYXapAIraDh1BtPUZTN_yivSFHig6GD2okuGbq0XJQaXF5IHAqfp4fnms8zvgDRL6TTO-0DvXxcl-zxeej3AR2YK9fWoXmSxa6Qil8x-UAgnSj9A8VMoquUnMFuGb9cnLSxu1k2jEWu1ojpVGLgWQ9PKG2diHJcNoZqr1YQIu1L_XOD_l3oCkHa19vFTH9Lq5RQDrAROWYQeBIixSpegTAs8XayY3PMxdv4dCfw1NERR5hSjRKLaMq4u3L7eH7QRBeEVMsIj9ZSnoN5zHiySasIxhhct-9vsd1RjpV5wrdSAc2F3HTWnNucqG7U72SPUSXP4TArz46ts3kVX9kGlUen_hZpcLs_ElfsSkJtbwuUCnBL7GFvu_JtMHHvAl0tLKFzqRz88ejClcs9hwFy4SxClxGjUs-Cik1-jcXTIU7xUAdtOoVcrFQL3R6sY-531IdlpV_7m00?></g></svg>