<svg xmlns="http://www.w3.org/2000/svg" xmlns:xlink="http://www.w3.org/1999/xlink" contentStyleType="text/css" data-diagram-type="SEQUENCE" height="1683.3333px" preserveAspectRatio="none" style="width:1773px;height:1683px;" version="1.1" viewBox="0 0 1773 1683" width="1773.9583px" zoomAndPan="magnify"><?plantuml 1.2026.5?><defs><linearGradient id="gjo3t3ecorfsr0" x1="50%" x2="50%" y1="0%" y2="100%"><stop offset="0%" stop-color="#EDF0F2"/><stop offset="100%" stop-color="#E9ECEF"/></linearGradient><linearGradient id="gjo3t3ecorfsr1" x1="50%" x2="50%" y1="0%" y2="100%"><stop offset="0%" stop-color="#59B6EC"/><stop offset="100%" stop-color="#2FA4E7"/></linearGradient><linearGradient id="gjo3t3ecorfsr2" x1="50%" x2="50%" y1="0%" y2="100%"><stop offset="0%" stop-color="#FFFFFF"/><stop offset="100%" stop-color="#F8F9FA"/></linearGradient><linearGradient id="gjo3t3ecorfsr3" x1="50%" x2="50%" y1="0%" y2="100%"><stop offset="0%" stop-color="#35638F"/><stop offset="100%" stop-color="#033C73"/></linearGradient></defs><g><g class="title" data-source-line="2"><rect fill="url(#gjo3t3ecorfsr0)" height="36.7513" rx="4.1667" ry="4.1667" style="stroke:#BABDBF;stroke-width:1.0417;" width="459.8674" x="656.1467" y="20.8333"/><text fill="#2FA4E7" font-family="'Verdana'" font-size="20.8333" font-weight="700" lengthAdjust="spacing" textLength="447.3674" x="662.3967" y="46.4213">Register Flow &#8212; TASK-FRONTEND-001</text></g><g><title>useRegister</title><rect fill="#EDF0F2" height="435.9049" style="stroke:#2683B9;stroke-width:1.0417;" width="10.4167" x="781.8125" y="674.6094"/></g><g><title>registerThunk</title><rect fill="#EDF0F2" height="190.3646" style="stroke:#2683B9;stroke-width:1.0417;" width="10.4167" x="974.8118" y="883.724"/></g><g><title>authSlice</title><rect fill="#EDF0F2" height="150.8464" style="stroke:#2683B9;stroke-width:1.0417;" width="10.4167" x="1313.8377" y="703.7435"/></g><g><title>authSlice</title><rect fill="#EDF0F2" height="64.4857" style="stroke:#2683B9;stroke-width:1.0417;" width="10.4167" x="1313.8377" y="1009.6029"/></g><g><title>authSlice</title><rect fill="#EDF0F2" height="49.9349" style="stroke:#2683B9;stroke-width:1.0417;" width="10.4167" x="1313.8377" y="1286.3281"/></g><g><title>AuthService</title><rect fill="#EDF0F2" height="53.0599" style="stroke:#2683B9;stroke-width:1.0417;" width="10.4167" x="1662.088" y="927.4089"/></g><rect fill="none" height="963.3464" rx="4.1667" ry="4.1667" style="stroke:#59B6EC;stroke-width:1.0417;" width="1731.5358" x="20.8333" y="468.6523"/><rect fill="none" height="481.6732" rx="4.1667" ry="4.1667" style="stroke:#59B6EC;stroke-width:1.0417;" width="1710.7025" x="31.25" y="943.0339"/><g class="participant-lifeline" data-entity-uid="part1" data-qualified-name="User" data-source-line="4" id="part1-lifeline"><g><title>. Visitante</title><rect fill="#000000" fill-opacity="0.00000" height="1447.2331" width="8.3333" x="73.9044" y="147.1354"/><line style="stroke:#BABDBF;stroke-width:1.0417;stroke-dasharray:5.2083,5.2083;" x1="77.0833" x2="77.0833" y1="147.1354" y2="1594.3685"/></g></g><g class="participant-lifeline" data-entity-uid="part2" data-qualified-name="Screen" data-source-line="5" id="part2-lifeline"><g><title>RegisterScreen</title><rect fill="#000000" fill-opacity="0.00000" height="1447.2331" width="8.3333" x="391.3462" y="147.1354"/><line style="stroke:#BABDBF;stroke-width:1.0417;stroke-dasharray:5.2083,5.2083;" x1="394.75" x2="394.75" y1="147.1354" y2="1594.3685"/></g></g><g class="participant-lifeline" data-entity-uid="part3" data-qualified-name="Hook" data-source-line="6" id="part3-lifeline"><g><title>useRegister</title><rect fill="#000000" fill-opacity="0.00000" height="1447.2331" width="8.3333" x="782.8542" y="147.1354"/><line style="stroke:#BABDBF;stroke-width:1.0417;stroke-dasharray:5.2083,5.2083;" x1="786.4034" x2="786.4034" y1="147.1354" y2="1594.3685"/></g></g><g class="participant-lifeline" data-entity-uid="part4" data-qualified-name="Thunk" data-source-line="7" id="part4-lifeline"><g><title>registerThunk</title><rect fill="#000000" fill-opacity="0.00000" height="1447.2331" width="8.3333" x="975.8535" y="147.1354"/><line style="stroke:#BABDBF;stroke-width:1.0417;stroke-dasharray:5.2083,5.2083;" x1="979.1677" x2="979.1677" y1="147.1354" y2="1594.3685"/></g></g><g class="participant-lifeline" data-entity-uid="part5" data-qualified-name="Slice" data-source-line="8" id="part5-lifeline"><g><title>authSlice</title><rect fill="#000000" fill-opacity="0.00000" height="1447.2331" width="8.3333" x="1314.8794" y="147.1354"/><line style="stroke:#BABDBF;stroke-width:1.0417;stroke-dasharray:5.2083,5.2083;" x1="1318.2465" x2="1318.2465" y1="147.1354" y2="1594.3685"/></g></g><g class="participant-lifeline" data-entity-uid="part6" data-qualified-name="API" data-source-line="9" id="part6-lifeline"><g><title>AuthService</title><rect fill="#000000" fill-opacity="0.00000" height="1447.2331" width="8.3333" x="1663.1297" y="147.1354"/><line style="stroke:#BABDBF;stroke-width:1.0417;stroke-dasharray:5.2083,5.2083;" x1="1666.5985" x2="1666.5985" y1="147.1354" y2="1594.3685"/></g></g><g class="participant participant-head" data-entity-uid="part1" data-qualified-name="User" data-source-line="4" id="part1-head"><text fill="#343A40" font-family="'Verdana'" font-size="12.5" lengthAdjust="spacing" textLength="66.5588" x="41.6667" y="144.1874">&#128100; Visitante</text><ellipse cx="78.0711" cy="78.418" fill="url(#gjo3t3ecorfsr1)" rx="8.3333" ry="8.3333" style="stroke:#2FA4E7;stroke-width:1.0417;"/><path d="M78.0711,86.7513 L78.0711,114.8763 M64.5294,95.0846 L91.6128,95.0846 M78.0711,114.8763 L64.5294,130.5013 M78.0711,114.8763 L91.6128,130.5013" fill="none" style="stroke:#2FA4E7;stroke-width:1.0417;"/></g><g class="participant participant-tail" data-entity-uid="part1" data-qualified-name="User" data-source-line="4" id="part1-tail"><text fill="#343A40" font-family="'Verdana'" font-size="12.5" lengthAdjust="spacing" textLength="66.5588" x="41.6667" y="1604.9296">&#128100; Visitante</text><ellipse cx="78.0711" cy="1617.2526" fill="url(#gjo3t3ecorfsr1)" rx="8.3333" ry="8.3333" style="stroke:#2FA4E7;stroke-width:1.0417;"/><path d="M78.0711,1625.5859 L78.0711,1653.7109 M64.5294,1633.9193 L91.6128,1633.9193 M78.0711,1653.7109 L64.5294,1669.3359 M78.0711,1653.7109 L91.6128,1669.3359" fill="none" style="stroke:#2FA4E7;stroke-width:1.0417;"/></g><g class="participant participant-head" data-entity-uid="part2" data-qualified-name="Screen" data-source-line="5" id="part2-head"><text fill="#343A40" font-family="'Verdana'" font-size="12.5" lengthAdjust="spacing" textLength="95.2759" x="344.75" y="144.1874">RegisterScreen</text><path d="M374.1587,103.418 L374.1587,128.418 M374.1587,115.918 L391.8671,115.918" fill="none" style="stroke:#2FA4E7;stroke-width:1.0417;"/><ellipse cx="404.3671" cy="115.918" fill="url(#gjo3t3ecorfsr1)" rx="12.5" ry="12.5" style="stroke:#2FA4E7;stroke-width:1.0417;"/></g><g class="participant participant-tail" data-entity-uid="part2" data-qualified-name="Screen" data-source-line="5" id="part2-tail"><text fill="#343A40" font-family="'Verdana'" font-size="12.5" lengthAdjust="spacing" textLength="95.2759" x="344.75" y="1604.9296">RegisterScreen</text><path d="M374.1587,1612.0443 L374.1587,1637.0443 M374.1587,1624.5443 L391.8671,1624.5443" fill="none" style="stroke:#2FA4E7;stroke-width:1.0417;"/><ellipse cx="404.3671" cy="1624.5443" fill="url(#gjo3t3ecorfsr1)" rx="12.5" ry="12.5" style="stroke:#2FA4E7;stroke-width:1.0417;"/></g><g class="participant participant-head" data-entity-uid="part3" data-qualified-name="Hook" data-source-line="6" id="part3-head"><text fill="#343A40" font-family="'Verdana'" font-size="12.5" lengthAdjust="spacing" textLength="74.1516" x="746.8201" y="144.1874">useRegister</text><ellipse cx="787.0209" cy="115.918" fill="url(#gjo3t3ecorfsr1)" rx="12.5" ry="12.5" style="stroke:#2FA4E7;stroke-width:1.0417;"/><polygon fill="#2FA4E7" points="782.8542,103.418,789.1042,98.2096,787.0209,103.418,789.1042,108.6263,782.8542,103.418" style="stroke:#2FA4E7;stroke-width:1.0417;stroke-linejoin:miter;stroke-miterlimit:10;"/></g><g class="participant participant-tail" data-entity-uid="part3" data-qualified-name="Hook" data-source-line="6" id="part3-tail"><text fill="#343A40" font-family="'Verdana'" font-size="12.5" lengthAdjust="spacing" textLength="74.1516" x="746.8201" y="1604.9296">useRegister</text><ellipse cx="787.0209" cy="1624.5443" fill="url(#gjo3t3ecorfsr1)" rx="12.5" ry="12.5" style="stroke:#2FA4E7;stroke-width:1.0417;"/><polygon fill="#2FA4E7" points="782.8542,1612.0443,789.1042,1606.8359,787.0209,1612.0443,789.1042,1617.2526,782.8542,1612.0443" style="stroke:#2FA4E7;stroke-width:1.0417;stroke-linejoin:miter;stroke-miterlimit:10;"/></g><g class="participant participant-head" data-entity-uid="part4" data-qualified-name="Thunk" data-source-line="7" id="part4-head"><text fill="#343A40" font-family="'Verdana'" font-size="12.5" lengthAdjust="spacing" textLength="87.1216" x="933.3344" y="144.1874">registerThunk</text><ellipse cx="980.0201" cy="115.918" fill="url(#gjo3t3ecorfsr1)" rx="12.5" ry="12.5" style="stroke:#2FA4E7;stroke-width:1.0417;"/><polygon fill="#2FA4E7" points="975.8535,103.418,982.1035,98.2096,980.0201,103.418,982.1035,108.6263,975.8535,103.418" style="stroke:#2FA4E7;stroke-width:1.0417;stroke-linejoin:miter;stroke-miterlimit:10;"/></g><g class="participant participant-tail" data-entity-uid="part4" data-qualified-name="Thunk" data-source-line="7" id="part4-tail"><text fill="#343A40" font-family="'Verdana'" font-size="12.5" lengthAdjust="spacing" textLength="87.1216" x="933.3344" y="1604.9296">registerThunk</text><ellipse cx="980.0201" cy="1624.5443" fill="url(#gjo3t3ecorfsr1)" rx="12.5" ry="12.5" style="stroke:#2FA4E7;stroke-width:1.0417;"/><polygon fill="#2FA4E7" points="975.8535,1612.0443,982.1035,1606.8359,980.0201,1612.0443,982.1035,1617.2526,975.8535,1612.0443" style="stroke:#2FA4E7;stroke-width:1.0417;stroke-linejoin:miter;stroke-miterlimit:10;"/></g><g class="participant participant-head" data-entity-uid="part5" data-qualified-name="Slice" data-source-line="8" id="part5-head"><text fill="#343A40" font-family="'Verdana'" font-size="12.5" lengthAdjust="spacing" textLength="57.8491" x="1286.9965" y="129.6366">authSlice</text><text fill="#343A40" font-family="'Verdana'" font-size="12.5" lengthAdjust="spacing" textLength="49.3835" x="1291.2292" y="144.1874">(Redux)</text><ellipse cx="1319.046" cy="101.3672" fill="url(#gjo3t3ecorfsr1)" rx="12.5" ry="12.5" style="stroke:#2FA4E7;stroke-width:1.0417;"/><line style="stroke:#2FA4E7;stroke-width:1.0417;" x1="1306.546" x2="1331.546" y1="115.9505" y2="115.9505"/></g><g class="participant participant-tail" data-entity-uid="part5" data-qualified-name="Slice" data-source-line="8" id="part5-tail"><text fill="#343A40" font-family="'Verdana'" font-size="12.5" lengthAdjust="spacing" textLength="57.8491" x="1286.9965" y="1604.9296">authSlice</text><text fill="#343A40" font-family="'Verdana'" font-size="12.5" lengthAdjust="spacing" textLength="49.3835" x="1291.2292" y="1619.4804">(Redux)</text><ellipse cx="1319.046" cy="1639.0951" fill="url(#gjo3t3ecorfsr1)" rx="12.5" ry="12.5" style="stroke:#2FA4E7;stroke-width:1.0417;"/><line style="stroke:#2FA4E7;stroke-width:1.0417;" x1="1306.546" x2="1331.546" y1="1653.6784" y2="1653.6784"/></g><g class="participant participant-head" data-entity-uid="part6" data-qualified-name="API" data-source-line="9" id="part6-head"><text fill="#343A40" font-family="'Verdana'" font-size="12.5" lengthAdjust="spacing" textLength="75.4944" x="1626.4242" y="129.6366">AuthService</text><text fill="#343A40" font-family="'Verdana'" font-size="12.5" lengthAdjust="spacing" textLength="122.229" x="1603.0568" y="144.1874">POST /auth/register</text><path d="M1648.5463,80.5339 C1648.5463,70.1172 1667.2963,70.1172 1667.2963,70.1172 C1667.2963,70.1172 1686.0463,70.1172 1686.0463,80.5339 L1686.0463,107.6172 C1686.0463,118.0339 1667.2963,118.0339 1667.2963,118.0339 C1667.2963,118.0339 1648.5463,118.0339 1648.5463,107.6172 L1648.5463,80.5339" fill="url(#gjo3t3ecorfsr1)" style="stroke:#2FA4E7;stroke-width:1.0417;"/><path d="M1648.5463,80.5339 C1648.5463,90.9505 1667.2963,90.9505 1667.2963,90.9505 C1667.2963,90.9505 1686.0463,90.9505 1686.0463,80.5339" fill="none" style="stroke:#2FA4E7;stroke-width:1.0417;"/></g><g class="participant participant-tail" data-entity-uid="part6" data-qualified-name="API" data-source-line="9" id="part6-tail"><text fill="#343A40" font-family="'Verdana'" font-size="12.5" lengthAdjust="spacing" textLength="75.4944" x="1626.4242" y="1604.9296">AuthService</text><text fill="#343A40" font-family="'Verdana'" font-size="12.5" lengthAdjust="spacing" textLength="122.229" x="1603.0568" y="1619.4804">POST /auth/register</text><path d="M1648.5463,1632.8451 C1648.5463,1622.4284 1667.2963,1622.4284 1667.2963,1622.4284 C1667.2963,1622.4284 1686.0463,1622.4284 1686.0463,1632.8451 L1686.0463,1659.9284 C1686.0463,1670.3451 1667.2963,1670.3451 1667.2963,1670.3451 C1667.2963,1670.3451 1648.5463,1670.3451 1648.5463,1659.9284 L1648.5463,1632.8451" fill="url(#gjo3t3ecorfsr1)" style="stroke:#2FA4E7;stroke-width:1.0417;"/><path d="M1648.5463,1632.8451 C1648.5463,1643.2617 1667.2963,1643.2617 1667.2963,1643.2617 C1667.2963,1643.2617 1686.0463,1643.2617 1686.0463,1632.8451" fill="none" style="stroke:#2FA4E7;stroke-width:1.0417;"/></g><g><title>useRegister</title><rect fill="#EDF0F2" height="435.9049" style="stroke:#2683B9;stroke-width:1.0417;" width="10.4167" x="781.8125" y="674.6094"/></g><g><title>registerThunk</title><rect fill="#EDF0F2" height="190.3646" style="stroke:#2683B9;stroke-width:1.0417;" width="10.4167" x="974.8118" y="883.724"/></g><g><title>authSlice</title><rect fill="#EDF0F2" height="150.8464" style="stroke:#2683B9;stroke-width:1.0417;" width="10.4167" x="1313.8377" y="703.7435"/></g><g><title>authSlice</title><rect fill="#EDF0F2" height="64.4857" style="stroke:#2683B9;stroke-width:1.0417;" width="10.4167" x="1313.8377" y="1009.6029"/></g><g><title>authSlice</title><rect fill="#EDF0F2" height="49.9349" style="stroke:#2683B9;stroke-width:1.0417;" width="10.4167" x="1313.8377" y="1286.3281"/></g><g><title>AuthService</title><rect fill="#EDF0F2" height="53.0599" style="stroke:#2683B9;stroke-width:1.0417;" width="10.4167" x="1662.088" y="927.4089"/></g><rect fill="url(#gjo3t3ecorfsr2)" height="3.125" rx="4.1667" ry="4.1667" style="stroke:url(#gjo3t3ecorfsr2);stroke-width:1.0417;" width="1752.3692" x="10.4167" y="178.3691"/><line style="stroke:#868E96;stroke-width:1.0417;" x1="10.4167" x2="1762.7858" y1="178.3691" y2="178.3691"/><line style="stroke:#868E96;stroke-width:1.0417;" x1="10.4167" x2="1762.7858" y1="181.4941" y2="181.4941"/><rect fill="url(#gjo3t3ecorfsr2)" height="22.8841" rx="4.1667" ry="4.1667" style="stroke:#868E96;stroke-width:2.0833;" width="113.9547" x="829.6239" y="167.9688"/><text fill="#343A40" font-family="'Verdana'" font-size="12.5" font-weight="700" lengthAdjust="spacing" textLength="95.0195" x="835.8739" y="183.7382">Renderiza&#231;&#227;o</text><g class="message" data-entity-1="part1" data-entity-2="part2" data-source-line="14" id="msg1"><polygon fill="#2FA4E7" points="383.0129,232.4544,393.4296,236.6211,383.0129,240.7878,387.1796,236.6211" style="stroke:#2FA4E7;stroke-width:1.0417;stroke-linejoin:miter;stroke-miterlimit:10;"/><line style="stroke:#2FA4E7;stroke-width:3.125;" x1="78.0711" x2="389.2629" y1="236.6211" y2="236.6211"/><text fill="#343A40" font-family="'Verdana'" font-size="12.5" font-weight="700" lengthAdjust="spacing" textLength="8.6975" x="85.3628" y="224.3144">1</text><text fill="#343A40" font-family="'Verdana'" font-size="12.5" lengthAdjust="spacing" textLength="140.2161" x="98.2269" y="217.039">Navega para Cadastro</text><text fill="#343A40" font-family="'Verdana'" font-size="12.5" lengthAdjust="spacing" textLength="253.4119" x="98.2269" y="231.5898">(via "N&#227;o tem uma conta? Cadastre-se")</text></g><g class="message" data-entity-1="part2" data-entity-2="part2" data-source-line="15" id="msg2"><line style="stroke:#2FA4E7;stroke-width:3.125;" x1="395.5129" x2="439.2629" y1="280.306" y2="280.306"/><line style="stroke:#2FA4E7;stroke-width:3.125;" x1="439.2629" x2="439.2629" y1="280.306" y2="293.8477"/><line style="stroke:#2FA4E7;stroke-width:3.125;" x1="396.5546" x2="439.2629" y1="293.8477" y2="293.8477"/><polygon fill="#2FA4E7" points="406.9712,289.681,396.5546,293.8477,406.9712,298.0143,402.8046,293.8477" style="stroke:#2FA4E7;stroke-width:1.0417;stroke-linejoin:miter;stroke-miterlimit:10;"/><text fill="#343A40" font-family="'Verdana'" font-size="12.5" font-weight="700" lengthAdjust="spacing" textLength="8.6975" x="402.8046" y="267.9993">2</text><text fill="#343A40" font-family="'Verdana'" font-size="12.5" lengthAdjust="spacing" textLength="150.1953" x="415.6687" y="260.7239">Renderiza Nome, Email,</text><text fill="#343A40" font-family="'Verdana'" font-size="12.5" lengthAdjust="spacing" textLength="202.7466" x="415.6687" y="275.2747">Senha, Confirmar Senha, bot&#245;es</text></g><rect fill="url(#gjo3t3ecorfsr2)" height="3.125" rx="4.1667" ry="4.1667" style="stroke:url(#gjo3t3ecorfsr2);stroke-width:1.0417;" width="1752.3692" x="10.4167" y="322.998"/><line style="stroke:#868E96;stroke-width:1.0417;" x1="10.4167" x2="1762.7858" y1="322.998" y2="322.998"/><line style="stroke:#868E96;stroke-width:1.0417;" x1="10.4167" x2="1762.7858" y1="326.123" y2="326.123"/><rect fill="url(#gjo3t3ecorfsr2)" height="22.8841" rx="4.1667" ry="4.1667" style="stroke:#868E96;stroke-width:2.0833;" width="259.9447" x="756.6289" y="312.5977"/><text fill="#343A40" font-family="'Verdana'" font-size="12.5" font-weight="700" lengthAdjust="spacing" textLength="241.0095" x="762.8789" y="328.3671">Valida&#231;&#227;o local (React Final Form)</text><g class="message" data-entity-1="part1" data-entity-2="part2" data-source-line="18" id="msg3"><polygon fill="#2FA4E7" points="383.0129,362.5326,393.4296,366.6992,383.0129,370.8659,387.1796,366.6992" style="stroke:#2FA4E7;stroke-width:1.0417;stroke-linejoin:miter;stroke-miterlimit:10;"/><line style="stroke:#2FA4E7;stroke-width:3.125;" x1="78.0711" x2="389.2629" y1="366.6992" y2="366.6992"/><text fill="#343A40" font-family="'Verdana'" font-size="12.5" font-weight="700" lengthAdjust="spacing" textLength="8.6975" x="85.3628" y="361.6679">3</text><text fill="#343A40" font-family="'Verdana'" font-size="12.5" lengthAdjust="spacing" textLength="232.0374" x="98.2269" y="361.6679">Preenche campos e clica "Cadastrar"</text></g><g class="message" data-entity-1="part2" data-entity-2="part2" data-source-line="19" id="msg4"><line style="stroke:#2FA4E7;stroke-width:3.125;" x1="395.5129" x2="439.2629" y1="439.4857" y2="439.4857"/><line style="stroke:#2FA4E7;stroke-width:3.125;" x1="439.2629" x2="439.2629" y1="439.4857" y2="453.0273"/><line style="stroke:#2FA4E7;stroke-width:3.125;" x1="396.5546" x2="439.2629" y1="453.0273" y2="453.0273"/><polygon fill="#2FA4E7" points="406.9712,448.8607,396.5546,453.0273,406.9712,457.194,402.8046,453.0273" style="stroke:#2FA4E7;stroke-width:1.0417;stroke-linejoin:miter;stroke-miterlimit:10;"/><text fill="#343A40" font-family="'Verdana'" font-size="12.5" font-weight="700" lengthAdjust="spacing" textLength="8.6975" x="402.8046" y="412.6282">4</text><text fill="#343A40" font-family="'Verdana'" font-size="12.5" lengthAdjust="spacing" textLength="124.4995" x="415.6687" y="390.802">Dispara validadores</text><text fill="#343A40" font-family="'Verdana'" font-size="12.5" lengthAdjust="spacing" textLength="208.3252" x="415.6687" y="405.3528">(validateRequired, validateEmail,</text><text fill="#343A40" font-family="'Verdana'" font-size="12.5" lengthAdjust="spacing" textLength="295.0134" x="415.6687" y="419.9036">validatePasswordLength, validateNameLength,</text><text fill="#343A40" font-family="'Verdana'" font-size="12.5" lengthAdjust="spacing" textLength="152.3743" x="415.6687" y="434.4543">validatePasswordMatch)</text></g><path d="M25,468.6523 L86.4034,468.6523 L86.4034,474.8698 L75.9867,485.2865 L20.8333,485.2865 L20.8333,472.819 A4.1667,4.1667 0 0 1 25,468.6523" fill="#E9ECEF" style="stroke:#868E96;stroke-width:1.0417;"/><rect fill="none" height="963.3464" rx="4.1667" ry="4.1667" style="stroke:#59B6EC;stroke-width:1.0417;" width="1731.5358" x="20.8333" y="468.6523"/><text fill="#033C73" font-family="'Verdana'" font-size="12.5" font-weight="700" lengthAdjust="spacing" textLength="18.6951" x="36.4583" y="481.2968">alt</text><text fill="#343A40" font-family="'Verdana'" font-size="12.5" font-weight="700" lengthAdjust="spacing" textLength="134.6985" x="102.0284" y="482.3385">[Campos inv&#225;lidos]</text><g class="message" data-entity-1="part2" data-entity-2="part1" data-source-line="22" id="msg5"><polygon fill="#2FA4E7" points="89.5294,516.4714,79.1128,520.638,89.5294,524.8047,85.3628,520.638" style="stroke:#2FA4E7;stroke-width:1.0417;stroke-linejoin:miter;stroke-miterlimit:10;"/><line style="stroke:#2FA4E7;stroke-width:3.125;stroke-dasharray:2.0833,2.0833;" x1="83.2794" x2="394.4712" y1="520.638" y2="520.638"/><text fill="#343A40" font-family="'Verdana'" font-size="12.5" font-weight="700" lengthAdjust="spacing" textLength="8.6975" x="95.7794" y="508.3313">5</text><text fill="#343A40" font-family="'Verdana'" font-size="12.5" lengthAdjust="spacing" textLength="141.4551" x="108.6436" y="501.0559">Exibe erros por campo</text><text fill="#343A40" font-family="'Verdana'" font-size="12.5" lengthAdjust="spacing" textLength="161.0413" x="108.6436" y="515.6067">Nenhuma requisi&#231;&#227;o feita</text></g><path d="M400,538.3464 L400,583.138 A4.1667,4.1667 0 0 0 404.1667,587.3047 L687.5,587.3047 A4.1667,4.1667 0 0 0 691.6667,583.138 L691.6667,544.5964 L681.25,534.1797 L404.1667,534.1797 A4.1667,4.1667 0 0 0 400,538.3464" fill="url(#gjo3t3ecorfsr3)" style="stroke:#033C73;stroke-width:1.0417;"/><path d="M681.25,534.1797 L681.25,542.513 A2.0833,2.0833 0 0 0 683.3333,544.5964 L691.6667,544.5964 L681.25,534.1797" fill="url(#gjo3t3ecorfsr3)" style="stroke:#033C73;stroke-width:1.0417;"/><text fill="#FFFFFF" font-family="'Verdana'" font-size="12.5" lengthAdjust="spacing" textLength="193.4753" x="406.25" y="550.9908">Ex: "As senhas n&#227;o coincidem"</text><text fill="#FFFFFF" font-family="'Verdana'" font-size="12.5" lengthAdjust="spacing" textLength="270.5444" x="406.25" y="565.5416">"A senha deve ter no m&#237;nimo 8 caracteres"</text><text fill="#FFFFFF" font-family="'Verdana'" font-size="12.5" lengthAdjust="spacing" textLength="269.5618" x="406.25" y="580.0924">"O nome deve ter no m&#237;nimo 2 caracteres"</text><line style="stroke:#59B6EC;stroke-width:1.0417;stroke-dasharray:2.0833,2.0833;" x1="20.8333" x2="1752.3692" y1="594.4987" y2="594.4987"/><text fill="#343A40" font-family="'Verdana'" font-size="12.5" font-weight="700" lengthAdjust="spacing" textLength="121.5149" x="26.0417" y="606.1015">[Campos v&#225;lidos]</text><rect fill="url(#gjo3t3ecorfsr2)" height="3.125" rx="4.1667" ry="4.1667" style="stroke:url(#gjo3t3ecorfsr2);stroke-width:1.0417;" width="1752.3692" x="10.4167" y="630.9082"/><line style="stroke:#868E96;stroke-width:1.0417;" x1="10.4167" x2="1762.7858" y1="630.9082" y2="630.9082"/><line style="stroke:#868E96;stroke-width:1.0417;" x1="10.4167" x2="1762.7858" y1="634.0332" y2="634.0332"/><rect fill="url(#gjo3t3ecorfsr2)" height="22.8841" rx="4.1667" ry="4.1667" style="stroke:#868E96;stroke-width:2.0833;" width="94.9972" x="839.1027" y="620.5078"/><text fill="#343A40" font-family="'Verdana'" font-size="12.5" font-weight="700" lengthAdjust="spacing" textLength="76.062" x="845.3527" y="636.2773">Submiss&#227;o</text><g class="message" data-entity-1="part2" data-entity-2="part3" data-source-line="31" id="msg6"><polygon fill="#2FA4E7" points="769.3125,670.4427,779.7292,674.6094,769.3125,678.776,773.4792,674.6094" style="stroke:#2FA4E7;stroke-width:1.0417;stroke-linejoin:miter;stroke-miterlimit:10;"/><line style="stroke:#2FA4E7;stroke-width:3.125;" x1="395.5129" x2="775.5625" y1="674.6094" y2="674.6094"/><text fill="#343A40" font-family="'Verdana'" font-size="12.5" font-weight="700" lengthAdjust="spacing" textLength="8.6975" x="402.8046" y="669.578">6</text><text fill="#343A40" font-family="'Verdana'" font-size="12.5" lengthAdjust="spacing" textLength="353.6438" x="415.6687" y="669.578">onSubmit({ name, email, password, confirmPassword })</text></g><g class="message" data-entity-1="part3" data-entity-2="part5" data-source-line="33" id="msg7"><polygon fill="#2FA4E7" points="1301.3377,699.5768,1311.7544,703.7435,1301.3377,707.9102,1305.5044,703.7435" style="stroke:#2FA4E7;stroke-width:1.0417;stroke-linejoin:miter;stroke-miterlimit:10;"/><line style="stroke:#2FA4E7;stroke-width:3.125;" x1="792.2292" x2="1307.5877" y1="703.7435" y2="703.7435"/><text fill="#343A40" font-family="'Verdana'" font-size="12.5" font-weight="700" lengthAdjust="spacing" textLength="8.6975" x="799.5209" y="698.7122">7</text><text fill="#343A40" font-family="'Verdana'" font-size="12.5" lengthAdjust="spacing" textLength="329.071" x="812.3851" y="698.7122">dispatch(registerThunk({ name, email, password }))</text></g><path d="M796.875,721.4518 L796.875,751.6602 A4.1667,4.1667 0 0 0 801.0417,755.8268 L941.6667,755.8268 A4.1667,4.1667 0 0 0 945.8333,751.6602 L945.8333,727.7018 L935.4167,717.2852 L801.0417,717.2852 A4.1667,4.1667 0 0 0 796.875,721.4518" fill="url(#gjo3t3ecorfsr3)" style="stroke:#033C73;stroke-width:1.0417;"/><path d="M935.4167,717.2852 L935.4167,725.6185 A2.0833,2.0833 0 0 0 937.5,727.7018 L945.8333,727.7018 L935.4167,717.2852" fill="url(#gjo3t3ecorfsr3)" style="stroke:#033C73;stroke-width:1.0417;"/><text fill="#FFFFFF" font-family="'Verdana'" font-size="12.5" lengthAdjust="spacing" textLength="106.7993" x="803.125" y="734.0963">confirmPassword</text><text fill="#FFFFFF" font-family="'Verdana'" font-size="12.5" lengthAdjust="spacing" textLength="127.3804" x="803.125" y="748.6471">nunca enviado &#224; API</text><g class="message" data-entity-1="part5" data-entity-2="part5" data-source-line="36" id="msg8"><line style="stroke:#2FA4E7;stroke-width:3.125;" x1="1324.2544" x2="1368.0044" y1="797.3633" y2="797.3633"/><line style="stroke:#2FA4E7;stroke-width:3.125;" x1="1368.0044" x2="1368.0044" y1="797.3633" y2="810.9049"/><line style="stroke:#2FA4E7;stroke-width:3.125;" x1="1325.296" x2="1368.0044" y1="810.9049" y2="810.9049"/><polygon fill="#2FA4E7" points="1335.7127,806.7383,1325.296,810.9049,1335.7127,815.0716,1331.546,810.9049" style="stroke:#2FA4E7;stroke-width:1.0417;stroke-linejoin:miter;stroke-miterlimit:10;"/><text fill="#343A40" font-family="'Verdana'" font-size="12.5" font-weight="700" lengthAdjust="spacing" textLength="8.6975" x="1331.546" y="785.0566">8</text><text fill="#343A40" font-family="'Verdana'" font-size="12.5" lengthAdjust="spacing" textLength="103.595" x="1344.4102" y="777.7812">isLoading = true</text><text fill="#343A40" font-family="'Verdana'" font-size="12.5" lengthAdjust="spacing" textLength="120.6543" x="1344.4102" y="792.3319">registerError = null</text></g><g class="message" data-entity-1="part5" data-entity-2="part2" data-source-line="37" id="msg9"><polygon fill="#2FA4E7" points="406.9712,850.4232,396.5546,854.5898,406.9712,858.7565,402.8046,854.5898" style="stroke:#2FA4E7;stroke-width:1.0417;stroke-linejoin:miter;stroke-miterlimit:10;"/><line style="stroke:#2FA4E7;stroke-width:3.125;stroke-dasharray:2.0833,2.0833;" x1="400.7212" x2="1318.0044" y1="854.5898" y2="854.5898"/><text fill="#343A40" font-family="'Verdana'" font-size="12.5" font-weight="700" lengthAdjust="spacing" textLength="8.6975" x="413.2212" y="842.2831">9</text><text fill="#343A40" font-family="'Verdana'" font-size="12.5" lengthAdjust="spacing" textLength="103.595" x="426.0854" y="835.0077">isLoading = true</text><text fill="#343A40" font-family="'Verdana'" font-size="12.5" lengthAdjust="spacing" textLength="251.1292" x="426.0854" y="849.5585">&#8594; bot&#227;o desabilitado + ActivityIndicator</text></g><g class="message" data-entity-1="part3" data-entity-2="part4" data-source-line="40" id="msg10"><polygon fill="#2FA4E7" points="962.3118,879.5573,972.7285,883.724,962.3118,887.8906,966.4785,883.724" style="stroke:#2FA4E7;stroke-width:1.0417;stroke-linejoin:miter;stroke-miterlimit:10;"/><line style="stroke:#2FA4E7;stroke-width:3.125;" x1="792.2292" x2="968.5618" y1="883.724" y2="883.724"/><text fill="#343A40" font-family="'Verdana'" font-size="12.5" font-weight="700" lengthAdjust="spacing" textLength="17.395" x="799.5209" y="878.6926">10</text><text fill="#343A40" font-family="'Verdana'" font-size="12.5" lengthAdjust="spacing" textLength="141.2292" x="821.0826" y="878.6926">registerThunk executa</text></g><g class="message" data-entity-1="part4" data-entity-2="part6" data-source-line="42" id="msg11"><polygon fill="#2FA4E7" points="1649.588,923.2422,1660.0047,927.4089,1649.588,931.5755,1653.7547,927.4089" style="stroke:#2FA4E7;stroke-width:1.0417;stroke-linejoin:miter;stroke-miterlimit:10;"/><line style="stroke:#2FA4E7;stroke-width:3.125;" x1="985.2285" x2="1655.838" y1="927.4089" y2="927.4089"/><text fill="#343A40" font-family="'Verdana'" font-size="12.5" font-weight="700" lengthAdjust="spacing" textLength="17.395" x="992.5201" y="915.1021">11</text><text fill="#343A40" font-family="'Verdana'" font-size="12.5" lengthAdjust="spacing" textLength="122.229" x="1014.0818" y="907.8267">POST /auth/register</text><text fill="#343A40" font-family="'Verdana'" font-size="12.5" lengthAdjust="spacing" textLength="169.2322" x="1014.0818" y="922.3775">{ name, email, password }</text></g><path d="M35.4167,943.0339 L96.8201,943.0339 L96.8201,949.2513 L86.4034,959.668 L31.25,959.668 L31.25,947.2005 A4.1667,4.1667 0 0 1 35.4167,943.0339" fill="#E9ECEF" style="stroke:#868E96;stroke-width:1.0417;"/><rect fill="none" height="481.6732" rx="4.1667" ry="4.1667" style="stroke:#59B6EC;stroke-width:1.0417;" width="1710.7025" x="31.25" y="943.0339"/><text fill="#033C73" font-family="'Verdana'" font-size="12.5" font-weight="700" lengthAdjust="spacing" textLength="18.6951" x="46.875" y="955.6783">alt</text><text fill="#343A40" font-family="'Verdana'" font-size="12.5" font-weight="700" lengthAdjust="spacing" textLength="97.522" x="112.4451" y="956.72">[201 Created]</text><g class="message" data-entity-1="part6" data-entity-2="part4" data-source-line="46" id="msg12"><polygon fill="#2FA4E7" points="996.6868,976.3021,986.2701,980.4688,996.6868,984.6354,992.5201,980.4688" style="stroke:#2FA4E7;stroke-width:1.0417;stroke-linejoin:miter;stroke-miterlimit:10;"/><line style="stroke:#2FA4E7;stroke-width:3.125;stroke-dasharray:2.0833,2.0833;" x1="990.4368" x2="1666.2547" y1="980.4688" y2="980.4688"/><text fill="#343A40" font-family="'Verdana'" font-size="12.5" font-weight="700" lengthAdjust="spacing" textLength="17.395" x="1002.9368" y="975.4374">12</text><text fill="#343A40" font-family="'Verdana'" font-size="12.5" lengthAdjust="spacing" textLength="218.8477" x="1024.4985" y="975.4374">{} (email de confirma&#231;&#227;o enviado)</text></g><g class="message" data-entity-1="part4" data-entity-2="part5" data-source-line="48" id="msg13"><polygon fill="#2FA4E7" points="1301.3377,1005.4362,1311.7544,1009.6029,1301.3377,1013.7695,1305.5044,1009.6029" style="stroke:#2FA4E7;stroke-width:1.0417;stroke-linejoin:miter;stroke-miterlimit:10;"/><line style="stroke:#2FA4E7;stroke-width:3.125;stroke-dasharray:2.0833,2.0833;" x1="985.2285" x2="1307.5877" y1="1009.6029" y2="1009.6029"/><text fill="#343A40" font-family="'Verdana'" font-size="12.5" font-weight="700" lengthAdjust="spacing" textLength="17.395" x="992.5201" y="1004.5715">13</text><text fill="#343A40" font-family="'Verdana'" font-size="12.5" lengthAdjust="spacing" textLength="137.3352" x="1014.0818" y="1004.5715">registerThunk.fulfilled</text></g><g class="message" data-entity-1="part5" data-entity-2="part5" data-source-line="50" id="msg14"><line style="stroke:#2FA4E7;stroke-width:3.125;" x1="1324.2544" x2="1368.0044" y1="1073.0469" y2="1073.0469"/><line style="stroke:#2FA4E7;stroke-width:3.125;" x1="1368.0044" x2="1368.0044" y1="1073.0469" y2="1086.5885"/><line style="stroke:#2FA4E7;stroke-width:3.125;" x1="1319.046" x2="1368.0044" y1="1086.5885" y2="1086.5885"/><polygon fill="#2FA4E7" points="1329.4627,1082.4219,1319.046,1086.5885,1329.4627,1090.7552,1325.296,1086.5885" style="stroke:#2FA4E7;stroke-width:1.0417;stroke-linejoin:miter;stroke-miterlimit:10;"/><text fill="#343A40" font-family="'Verdana'" font-size="12.5" font-weight="700" lengthAdjust="spacing" textLength="17.395" x="1331.546" y="1053.4648">14</text><text fill="#343A40" font-family="'Verdana'" font-size="12.5" lengthAdjust="spacing" textLength="142.8711" x="1353.1077" y="1038.914">registerSuccess = true</text><text fill="#343A40" font-family="'Verdana'" font-size="12.5" lengthAdjust="spacing" textLength="107.6782" x="1353.1077" y="1053.4648">isLoading = false</text><text fill="#343A40" font-family="'Verdana'" font-size="12.5" lengthAdjust="spacing" textLength="120.6543" x="1353.1077" y="1068.0155">registerError = null</text></g><g class="message" data-entity-1="part3" data-entity-2="part2" data-source-line="53" id="msg15"><polygon fill="#2FA4E7" points="406.9712,1106.3477,396.5546,1110.5143,406.9712,1114.681,402.8046,1110.5143" style="stroke:#2FA4E7;stroke-width:1.0417;stroke-linejoin:miter;stroke-miterlimit:10;"/><line style="stroke:#2FA4E7;stroke-width:3.125;stroke-dasharray:2.0833,2.0833;" x1="400.7212" x2="785.9792" y1="1110.5143" y2="1110.5143"/><text fill="#343A40" font-family="'Verdana'" font-size="12.5" font-weight="700" lengthAdjust="spacing" textLength="17.395" x="413.2212" y="1105.483">15</text><text fill="#343A40" font-family="'Verdana'" font-size="12.5" lengthAdjust="spacing" textLength="142.8711" x="434.7829" y="1105.483">registerSuccess = true</text></g><g class="message" data-entity-1="part2" data-entity-2="part1" data-source-line="55" id="msg16"><polygon fill="#2FA4E7" points="89.5294,1150.0326,79.1128,1154.1992,89.5294,1158.3659,85.3628,1154.1992" style="stroke:#2FA4E7;stroke-width:1.0417;stroke-linejoin:miter;stroke-miterlimit:10;"/><line style="stroke:#2FA4E7;stroke-width:3.125;stroke-dasharray:2.0833,2.0833;" x1="83.2794" x2="394.4712" y1="1154.1992" y2="1154.1992"/><text fill="#343A40" font-family="'Verdana'" font-size="12.5" font-weight="700" lengthAdjust="spacing" textLength="17.395" x="95.7794" y="1141.8925">16</text><text fill="#343A40" font-family="'Verdana'" font-size="12.5" lengthAdjust="spacing" textLength="270.8801" x="117.3411" y="1134.6171">Exibe t('AUTH_REGISTER:successMessage')</text><text fill="#343A40" font-family="'Verdana'" font-size="12.5" lengthAdjust="spacing" textLength="231.6162" x="117.3411" y="1149.1679">[testID="register-success-message"]</text></g><line style="stroke:#59B6EC;stroke-width:1.0417;stroke-dasharray:2.0833,2.0833;" x1="31.25" x2="1741.9525" y1="1163.5742" y2="1163.5742"/><text fill="#343A40" font-family="'Verdana'" font-size="12.5" font-weight="700" lengthAdjust="spacing" textLength="180.6396" x="36.4583" y="1175.177">[409 Email j&#225; cadastrado]</text><g class="message" data-entity-1="part6" data-entity-2="part4" data-source-line="58" id="msg17"><polygon fill="#2FA4E7" points="991.4785,1195.8008,981.0618,1199.9674,991.4785,1204.1341,987.3118,1199.9674" style="stroke:#2FA4E7;stroke-width:1.0417;stroke-linejoin:miter;stroke-miterlimit:10;"/><line style="stroke:#2FA4E7;stroke-width:3.125;stroke-dasharray:2.0833,2.0833;" x1="985.2285" x2="1666.2547" y1="1199.9674" y2="1199.9674"/><text fill="#343A40" font-family="'Verdana'" font-size="12.5" font-weight="700" lengthAdjust="spacing" textLength="17.395" x="997.7285" y="1194.9361">17</text><text fill="#343A40" font-family="'Verdana'" font-size="12.5" lengthAdjust="spacing" textLength="89.8376" x="1019.2902" y="1194.9361">Erro HTTP 409</text></g><g class="message" data-entity-1="part4" data-entity-2="part4" data-source-line="60" id="msg18"><line style="stroke:#2FA4E7;stroke-width:3.125;" x1="980.0201" x2="1023.7701" y1="1243.6523" y2="1243.6523"/><line style="stroke:#2FA4E7;stroke-width:3.125;" x1="1023.7701" x2="1023.7701" y1="1243.6523" y2="1257.194"/><line style="stroke:#2FA4E7;stroke-width:3.125;" x1="981.0618" x2="1023.7701" y1="1257.194" y2="1257.194"/><polygon fill="#2FA4E7" points="991.4785,1253.0273,981.0618,1257.194,991.4785,1261.3607,987.3118,1257.194" style="stroke:#2FA4E7;stroke-width:1.0417;stroke-linejoin:miter;stroke-miterlimit:10;"/><text fill="#343A40" font-family="'Verdana'" font-size="12.5" font-weight="700" lengthAdjust="spacing" textLength="17.395" x="987.3118" y="1231.3456">18</text><text fill="#343A40" font-family="'Verdana'" font-size="12.5" lengthAdjust="spacing" textLength="302.8809" x="1008.8735" y="1224.0702">rejectWithValue('AUTH_REGISTER:errorGeneric')</text><text fill="#343A40" font-family="'Verdana'" font-size="12.5" lengthAdjust="spacing" textLength="253.3508" x="1008.8735" y="1238.621">(RN-04: n&#227;o revelar exist&#234;ncia do email)</text></g><g class="message" data-entity-1="part4" data-entity-2="part5" data-source-line="61" id="msg19"><polygon fill="#2FA4E7" points="1301.3377,1282.1615,1311.7544,1286.3281,1301.3377,1290.4948,1305.5044,1286.3281" style="stroke:#2FA4E7;stroke-width:1.0417;stroke-linejoin:miter;stroke-miterlimit:10;"/><line style="stroke:#2FA4E7;stroke-width:3.125;stroke-dasharray:2.0833,2.0833;" x1="980.0201" x2="1307.5877" y1="1286.3281" y2="1286.3281"/><text fill="#343A40" font-family="'Verdana'" font-size="12.5" font-weight="700" lengthAdjust="spacing" textLength="17.395" x="987.3118" y="1281.2968">19</text><text fill="#343A40" font-family="'Verdana'" font-size="12.5" lengthAdjust="spacing" textLength="142.4866" x="1008.8735" y="1281.2968">registerThunk.rejected</text></g><g class="message" data-entity-1="part5" data-entity-2="part5" data-source-line="63" id="msg20"><line style="stroke:#2FA4E7;stroke-width:3.125;" x1="1324.2544" x2="1368.0044" y1="1335.2214" y2="1335.2214"/><line style="stroke:#2FA4E7;stroke-width:3.125;" x1="1368.0044" x2="1368.0044" y1="1335.2214" y2="1348.763"/><line style="stroke:#2FA4E7;stroke-width:3.125;" x1="1319.046" x2="1368.0044" y1="1348.763" y2="1348.763"/><polygon fill="#2FA4E7" points="1329.4627,1344.5964,1319.046,1348.763,1329.4627,1352.9297,1325.296,1348.763" style="stroke:#2FA4E7;stroke-width:1.0417;stroke-linejoin:miter;stroke-miterlimit:10;"/><text fill="#343A40" font-family="'Verdana'" font-size="12.5" font-weight="700" lengthAdjust="spacing" textLength="17.395" x="1331.546" y="1322.9146">20</text><text fill="#343A40" font-family="'Verdana'" font-size="12.5" lengthAdjust="spacing" textLength="291.272" x="1353.1077" y="1315.6392">registerError = 'AUTH_REGISTER:errorGeneric'</text><text fill="#343A40" font-family="'Verdana'" font-size="12.5" lengthAdjust="spacing" textLength="107.6782" x="1353.1077" y="1330.19">isLoading = false</text></g><g class="message" data-entity-1="part3" data-entity-2="part2" data-source-line="66" id="msg21"><polygon fill="#2FA4E7" points="406.9712,1368.5221,396.5546,1372.6888,406.9712,1376.8555,402.8046,1372.6888" style="stroke:#2FA4E7;stroke-width:1.0417;stroke-linejoin:miter;stroke-miterlimit:10;"/><line style="stroke:#2FA4E7;stroke-width:3.125;stroke-dasharray:2.0833,2.0833;" x1="400.7212" x2="785.9792" y1="1372.6888" y2="1372.6888"/><text fill="#343A40" font-family="'Verdana'" font-size="12.5" font-weight="700" lengthAdjust="spacing" textLength="17.395" x="413.2212" y="1367.6575">21</text><text fill="#343A40" font-family="'Verdana'" font-size="12.5" lengthAdjust="spacing" textLength="125.6653" x="434.7829" y="1367.6575">registerError != null</text></g><g class="message" data-entity-1="part2" data-entity-2="part1" data-source-line="68" id="msg22"><polygon fill="#2FA4E7" points="89.5294,1412.207,79.1128,1416.3737,89.5294,1420.5404,85.3628,1416.3737" style="stroke:#2FA4E7;stroke-width:1.0417;stroke-linejoin:miter;stroke-miterlimit:10;"/><line style="stroke:#2FA4E7;stroke-width:3.125;stroke-dasharray:2.0833,2.0833;" x1="83.2794" x2="394.4712" y1="1416.3737" y2="1416.3737"/><text fill="#343A40" font-family="'Verdana'" font-size="12.5" font-weight="700" lengthAdjust="spacing" textLength="17.395" x="95.7794" y="1404.067">22</text><text fill="#343A40" font-family="'Verdana'" font-size="12.5" lengthAdjust="spacing" textLength="246.4294" x="117.3411" y="1396.7916">Exibe t('AUTH_REGISTER:errorGeneric')</text><text fill="#343A40" font-family="'Verdana'" font-size="12.5" lengthAdjust="spacing" textLength="213.4766" x="117.3411" y="1411.3424">[testID="register-error-message"]</text></g><rect fill="url(#gjo3t3ecorfsr2)" height="3.125" rx="4.1667" ry="4.1667" style="stroke:url(#gjo3t3ecorfsr2);stroke-width:1.0417;" width="1752.3692" x="10.4167" y="1460.1074"/><line style="stroke:#868E96;stroke-width:1.0417;" x1="10.4167" x2="1762.7858" y1="1460.1074" y2="1460.1074"/><line style="stroke:#868E96;stroke-width:1.0417;" x1="10.4167" x2="1762.7858" y1="1463.2324" y2="1463.2324"/><rect fill="url(#gjo3t3ecorfsr2)" height="22.8841" rx="4.1667" ry="4.1667" style="stroke:#868E96;stroke-width:2.0833;" width="119.0145" x="827.094" y="1449.707"/><text fill="#343A40" font-family="'Verdana'" font-size="12.5" font-weight="700" lengthAdjust="spacing" textLength="100.0793" x="833.344" y="1465.4765">Cancelamento</text><g class="message" data-entity-1="part1" data-entity-2="part2" data-source-line="73" id="msg23"><polygon fill="#2FA4E7" points="383.0129,1499.6419,393.4296,1503.8086,383.0129,1507.9753,387.1796,1503.8086" style="stroke:#2FA4E7;stroke-width:1.0417;stroke-linejoin:miter;stroke-miterlimit:10;"/><line style="stroke:#2FA4E7;stroke-width:3.125;" x1="78.0711" x2="389.2629" y1="1503.8086" y2="1503.8086"/><text fill="#343A40" font-family="'Verdana'" font-size="12.5" font-weight="700" lengthAdjust="spacing" textLength="17.395" x="85.3628" y="1498.7773">23</text><text fill="#343A40" font-family="'Verdana'" font-size="12.5" lengthAdjust="spacing" textLength="83.0505" x="106.9244" y="1498.7773">Clica "Voltar"</text></g><g class="message" data-entity-1="part2" data-entity-2="part2" data-source-line="74" id="msg24"><line style="stroke:#2FA4E7;stroke-width:3.125;" x1="395.5129" x2="439.2629" y1="1532.9427" y2="1532.9427"/><line style="stroke:#2FA4E7;stroke-width:3.125;" x1="439.2629" x2="439.2629" y1="1532.9427" y2="1546.4844"/><line style="stroke:#2FA4E7;stroke-width:3.125;" x1="396.5546" x2="439.2629" y1="1546.4844" y2="1546.4844"/><polygon fill="#2FA4E7" points="406.9712,1542.3177,396.5546,1546.4844,406.9712,1550.651,402.8046,1546.4844" style="stroke:#2FA4E7;stroke-width:1.0417;stroke-linejoin:miter;stroke-miterlimit:10;"/><text fill="#343A40" font-family="'Verdana'" font-size="12.5" font-weight="700" lengthAdjust="spacing" textLength="17.395" x="402.8046" y="1527.9114">24</text><text fill="#343A40" font-family="'Verdana'" font-size="12.5" lengthAdjust="spacing" textLength="125.647" x="424.3663" y="1527.9114">navigation.goBack()</text></g><g class="message" data-entity-1="part2" data-entity-2="part1" data-source-line="75" id="msg25"><polygon fill="#2FA4E7" points="89.5294,1571.4518,79.1128,1575.6185,89.5294,1579.7852,85.3628,1575.6185" style="stroke:#2FA4E7;stroke-width:1.0417;stroke-linejoin:miter;stroke-miterlimit:10;"/><line style="stroke:#2FA4E7;stroke-width:3.125;stroke-dasharray:2.0833,2.0833;" x1="83.2794" x2="394.4712" y1="1575.6185" y2="1575.6185"/><text fill="#343A40" font-family="'Verdana'" font-size="12.5" font-weight="700" lengthAdjust="spacing" textLength="17.395" x="95.7794" y="1570.5872">25</text><text fill="#343A40" font-family="'Verdana'" font-size="12.5" lengthAdjust="spacing" textLength="163.1775" x="117.3411" y="1570.5872">Retorna para LoginScreen</text></g><?plantuml-src jLR1ZXf74BtFLvJdOb30nfOF2HAE2CjwLrcp2F3c4AAecIcWlJFTw-uUJ69PoYdtHBadLY95YfHZle0_yHVa4rBTFGF3CgoiH45233rLrQ_glQhkUsQ9AKA4AakGYS1mao2CSC6rGGMdYNmDxx_x2IRTyUVDqz7bOD8Vd3HRhKT1m28Z5OH___p3Rt35DJTC60o1QNYXKGKpcOcOgMyWBAAD8uKed8L_328fZ989X9d6migzFvFoUlTMvQycoqnSk_VkAK11S6a3bfdbEE4HJaLjX76shljDx58GCyDcJ2E4NMk6QkKCXvVZ2JoqdWzLUUVky9nIoumKMJgZD89EXyeXObJyMxRvVVEhX4udi1b2yscU1xHXm5QuO73358CUYvacv8HcnHc40-jaC8KiPM2JOfyMDjZK6DQ3F4mvu7PF6CWK6z1F6KyQKp56iMGDw4anvofb2lA5cJIRlr0xl5SiuN4EDf4HIu3AGdJ1AHVqvrIgj5wPnT3-HalI0qjlf0Pwe1fI2ZbSfi8gh2TSkyHNRjzOAjGsT_VF4B6lCgumRa2nKkHI_1yohLzB5L-WM9Zbpcx0KipN3esVCnCjwyHLOgYQ3YuNgyqxif8w0FeKI0cgoxGD_JMV8Q1IP7n3udLfJiM0IcYvKHQfvhvmSoH5kpX26WJ55qi3Sbv85_9FVzqcPMdGbWODmhf6aek8nvY6MxEmwoqWnXM2RIqX8TtyANWguMC2eeWVfCALN2x9XdgpokFnWGV9nG4DC26jvmNPbiEgOfpDKgvrhk1oWPwwVgFwIE6CJEqD26PLXuufahMlUSFAr-gk807UrbqaWi9NH8vlNBlY8bgHs2QaqB7L235MsslcOnjHt7f5xNEOjq1CXSW4gHG5jLiiOVEBw-8zN7uMkAGTe18ohYyaYxbOG0UCocWs513x91H5go9Bah9lMVk7tk-__z5r8zKvHircF24X4QoFe6lHqCGw5p5r5KrF5pJ6MoZtwkVAHFlibGrmZL6MotFhxOUYNV96v4rri6rzEEkcucZbzuEwUUXMgCyUjnv1Jo6jnrkPsYsQ9Q1ltaBDnQJ42gRoMPGJLD_wbb8l62l1Bt6qb_s3UPRCUPAKG5JmNCbr4MUSHH5glUMipEASKGVT8O9ApYfUxEZOyLbMJZMMgaZRfhfhgfdQ_UwBoTdNe_wpy_6aFsfh7_SvVTa2xzUduak3sfoVTBO7QZEtQQRUAFpAS-rco9FM9_xKWPURTpHl_0aGowFCsqh1sMGojAuVo75Pu2ynCbzmiwJZAyFRsTYXhPwXe3CnihdKHeDcwqdR3rn58pAXin3NbDRc3ng-D6YbbtRzWsNb4Vm7LHLIkGjwXTR-5rLvBFUEw_RVYUes3OUISXObGUM7Ks2_zXZgCH4HMIbTtgglKZr_vRYIYJbotn1inHVCS2aUBEHdBBgkxQvGkmn6I1DMv7Uo2xdWmjly0m00?></g></svg>