<svg xmlns="http://www.w3.org/2000/svg" xmlns:xlink="http://www.w3.org/1999/xlink" contentStyleType="text/css" data-diagram-type="STATE" height="722.9167px" preserveAspectRatio="none" style="width:1144px;height:722px;" version="1.1" viewBox="0 0 1144 722" width="1144.7917px" zoomAndPan="magnify"><?plantuml 1.2026.5?><defs><linearGradient id="g1vuyfij03rxht0" x1="50%" x2="50%" y1="0%" y2="100%"><stop offset="0%" stop-color="#EDF0F2"/><stop offset="100%" stop-color="#E9ECEF"/></linearGradient><linearGradient id="g1vuyfij03rxht1" x1="50%" x2="50%" y1="0%" y2="100%"><stop offset="0%" stop-color="#59B6EC"/><stop offset="100%" stop-color="#2FA4E7"/></linearGradient><linearGradient id="g1vuyfij03rxht2" x1="50%" x2="50%" y1="0%" y2="100%"><stop offset="0%" stop-color="#35638F"/><stop offset="100%" stop-color="#033C73"/></linearGradient></defs><g><g class="title" data-source-line="2"><rect fill="url(#g1vuyfij03rxht0)" height="36.7513" rx="4.1667" ry="4.1667" style="stroke:#BABDBF;stroke-width:1.0417;" width="538.8265" x="302.4009" y="20.8333"/><text fill="#2FA4E7" font-family="'Verdana'" font-size="20.8333" font-weight="700" lengthAdjust="spacing" textLength="526.3265" x="308.6509" y="46.4213">AuthState &#8212; M&#225;quina de Estados (authSlice)</text></g><g class="entity" data-qualified-name="Idle" data-source-line="6" id="ent0001"><path d="M319.8125,267.9492 L467.0207,267.9492 A4.1667,4.1667 0 0 1 471.1873,272.1159 L471.1873,291.7041 L315.6458,291.7041 L315.6458,272.1159 A4.1667,4.1667 0 0 1 319.8125,267.9492" fill="url(#g1vuyfij03rxht1)" style="stroke:url(#g1vuyfij03rxht1);stroke-width:1.0417;"/><path d="M315.6458,291.7041 L471.1873,291.7041 L471.1873,364.6452 A4.1667,4.1667 0 0 1 467.0207,368.8118 L319.8125,368.8118 A4.1667,4.1667 0 0 1 315.6458,364.6452 L315.6458,291.7041" fill="url(#g1vuyfij03rxht1)" style="stroke:url(#g1vuyfij03rxht1);stroke-width:1.0417;"/><rect fill="none" height="100.8626" rx="4.1667" ry="4.1667" style="stroke:#2683B9;stroke-width:1.0417;" width="155.5415" x="315.6458" y="267.9492"/><line style="stroke:#2683B9;stroke-width:1.0417;" x1="315.6458" x2="471.1873" y1="291.7041" y2="291.7041"/><line style="stroke:#2683B9;stroke-width:1.0417;" x1="315.6458" x2="471.1873" y1="291.7041" y2="291.7041"/><text fill="#343A40" font-family="'Verdana'" font-size="11.4583" lengthAdjust="spacing" textLength="20.8857" x="382.9737" y="283.7934">Idle</text><text fill="#343A40" font-family="'Verdana'" font-size="11.4583" lengthAdjust="spacing" textLength="62.7691" x="320.8542" y="307.5483">user = null</text><text fill="#343A40" font-family="'Verdana'" font-size="11.4583" lengthAdjust="spacing" textLength="98.705" x="320.8542" y="320.8865">isLoading = false</text><text fill="#343A40" font-family="'Verdana'" font-size="11.4583" lengthAdjust="spacing" textLength="94.0725" x="320.8542" y="334.2248">loginError = null</text><text fill="#343A40" font-family="'Verdana'" font-size="11.4583" lengthAdjust="spacing" textLength="110.5998" x="320.8542" y="347.563">registerError = null</text><text fill="#343A40" font-family="'Verdana'" font-size="11.4583" lengthAdjust="spacing" textLength="134.7082" x="320.8542" y="360.9012">registerSuccess = false</text></g><g class="entity" data-qualified-name="LoginLoading" data-source-line="14" id="ent0002"><path d="M118.9167,468.1888 L245.0041,468.1888 A4.1667,4.1667 0 0 1 249.1708,472.3555 L249.1708,491.9437 L114.75,491.9437 L114.75,472.3555 A4.1667,4.1667 0 0 1 118.9167,468.1888" fill="url(#g1vuyfij03rxht1)" style="stroke:url(#g1vuyfij03rxht1);stroke-width:1.0417;"/><path d="M114.75,491.9437 L249.1708,491.9437 L249.1708,524.8701 A4.1667,4.1667 0 0 1 245.0041,529.0368 L118.9167,529.0368 A4.1667,4.1667 0 0 1 114.75,524.8701 L114.75,491.9437" fill="url(#g1vuyfij03rxht1)" style="stroke:url(#g1vuyfij03rxht1);stroke-width:1.0417;"/><rect fill="none" height="60.848" rx="4.1667" ry="4.1667" style="stroke:#2683B9;stroke-width:1.0417;" width="134.4208" x="114.75" y="468.1888"/><line style="stroke:#2683B9;stroke-width:1.0417;" x1="114.75" x2="249.1708" y1="491.9437" y2="491.9437"/><line style="stroke:#2683B9;stroke-width:1.0417;" x1="114.75" x2="249.1708" y1="491.9437" y2="491.9437"/><text fill="#343A40" font-family="'Verdana'" font-size="11.4583" lengthAdjust="spacing" textLength="113.5874" x="125.1667" y="484.033">Login em progresso</text><text fill="#343A40" font-family="'Verdana'" font-size="11.4583" lengthAdjust="spacing" textLength="94.9621" x="119.9583" y="507.7879">isLoading = true</text><text fill="#343A40" font-family="'Verdana'" font-size="11.4583" lengthAdjust="spacing" textLength="94.0725" x="119.9583" y="521.1261">loginError = null</text></g><g class="entity" data-qualified-name="Authenticated" data-source-line="19" id="ent0003"><path d="M156.5625,101.0638 L267.7675,101.0638 A4.1667,4.1667 0 0 1 271.9342,105.2305 L271.9342,124.8187 L152.3958,124.8187 L152.3958,105.2305 A4.1667,4.1667 0 0 1 156.5625,101.0638" fill="url(#g1vuyfij03rxht1)" style="stroke:url(#g1vuyfij03rxht1);stroke-width:1.0417;"/><path d="M152.3958,124.8187 L271.9342,124.8187 L271.9342,171.0833 A4.1667,4.1667 0 0 1 267.7675,175.25 L156.5625,175.25 A4.1667,4.1667 0 0 1 152.3958,171.0833 L152.3958,124.8187" fill="url(#g1vuyfij03rxht1)" style="stroke:url(#g1vuyfij03rxht1);stroke-width:1.0417;"/><rect fill="none" height="74.1862" rx="4.1667" ry="4.1667" style="stroke:#2683B9;stroke-width:1.0417;" width="119.5384" x="152.3958" y="101.0638"/><line style="stroke:#2683B9;stroke-width:1.0417;" x1="152.3958" x2="271.9342" y1="124.8187" y2="124.8187"/><line style="stroke:#2683B9;stroke-width:1.0417;" x1="152.3958" x2="271.9342" y1="124.8187" y2="124.8187"/><text fill="#343A40" font-family="'Verdana'" font-size="11.4583" lengthAdjust="spacing" textLength="69.1864" x="177.5718" y="116.908">Autenticado</text><text fill="#343A40" font-family="'Verdana'" font-size="11.4583" lengthAdjust="spacing" textLength="96.0978" x="157.6042" y="140.6629">user = UserType</text><text fill="#343A40" font-family="'Verdana'" font-size="11.4583" lengthAdjust="spacing" textLength="98.705" x="157.6042" y="154.0011">isLoading = false</text><text fill="#343A40" font-family="'Verdana'" font-size="11.4583" lengthAdjust="spacing" textLength="94.0725" x="157.6042" y="167.3393">loginError = null</text></g><g class="entity" data-qualified-name="LoginError" data-source-line="25" id="ent0004"><path d="M91.0313,628.418 L333.3022,628.418 A4.1667,4.1667 0 0 1 337.4688,632.5846 L337.4688,652.1729 L86.8646,652.1729 L86.8646,632.5846 A4.1667,4.1667 0 0 1 91.0313,628.418" fill="url(#g1vuyfij03rxht1)" style="stroke:url(#g1vuyfij03rxht1);stroke-width:1.0417;"/><path d="M86.8646,652.1729 L337.4688,652.1729 L337.4688,698.4375 A4.1667,4.1667 0 0 1 333.3022,702.6042 L91.0313,702.6042 A4.1667,4.1667 0 0 1 86.8646,698.4375 L86.8646,652.1729" fill="url(#g1vuyfij03rxht1)" style="stroke:url(#g1vuyfij03rxht1);stroke-width:1.0417;"/><rect fill="none" height="74.1862" rx="4.1667" ry="4.1667" style="stroke:#2683B9;stroke-width:1.0417;" width="250.6042" x="86.8646" y="628.418"/><line style="stroke:#2683B9;stroke-width:1.0417;" x1="86.8646" x2="337.4688" y1="652.1729" y2="652.1729"/><line style="stroke:#2683B9;stroke-width:1.0417;" x1="86.8646" x2="337.4688" y1="652.1729" y2="652.1729"/><text fill="#343A40" font-family="'Verdana'" font-size="11.4583" lengthAdjust="spacing" textLength="76.3926" x="173.9704" y="644.2622">Erro de Login</text><text fill="#343A40" font-family="'Verdana'" font-size="11.4583" lengthAdjust="spacing" textLength="62.7691" x="92.0729" y="668.0171">user = null</text><text fill="#343A40" font-family="'Verdana'" font-size="11.4583" lengthAdjust="spacing" textLength="98.705" x="92.0729" y="681.3553">isLoading = false</text><text fill="#343A40" font-family="'Verdana'" font-size="11.4583" lengthAdjust="spacing" textLength="229.7709" x="92.0729" y="694.6935">loginError = 'AUTH_LOGIN:errorGeneric'</text></g><g class="entity" data-qualified-name="RegisterLoading" data-source-line="31" id="ent0005"><path d="M573.9792,461.5221 L721.1873,461.5221 A4.1667,4.1667 0 0 1 725.354,465.6888 L725.354,485.277 L569.8125,485.277 L569.8125,465.6888 A4.1667,4.1667 0 0 1 573.9792,461.5221" fill="url(#g1vuyfij03rxht1)" style="stroke:url(#g1vuyfij03rxht1);stroke-width:1.0417;"/><path d="M569.8125,485.277 L725.354,485.277 L725.354,531.5417 A4.1667,4.1667 0 0 1 721.1873,535.7083 L573.9792,535.7083 A4.1667,4.1667 0 0 1 569.8125,531.5417 L569.8125,485.277" fill="url(#g1vuyfij03rxht1)" style="stroke:url(#g1vuyfij03rxht1);stroke-width:1.0417;"/><rect fill="none" height="74.1862" rx="4.1667" ry="4.1667" style="stroke:#2683B9;stroke-width:1.0417;" width="155.5415" x="569.8125" y="461.5221"/><line style="stroke:#2683B9;stroke-width:1.0417;" x1="569.8125" x2="725.354" y1="485.277" y2="485.277"/><line style="stroke:#2683B9;stroke-width:1.0417;" x1="569.8125" x2="725.354" y1="485.277" y2="485.277"/><text fill="#343A40" font-family="'Verdana'" font-size="11.4583" lengthAdjust="spacing" textLength="130.1259" x="582.5203" y="477.3664">Registro em progresso</text><text fill="#343A40" font-family="'Verdana'" font-size="11.4583" lengthAdjust="spacing" textLength="94.9621" x="575.0208" y="501.1212">isLoading = true</text><text fill="#343A40" font-family="'Verdana'" font-size="11.4583" lengthAdjust="spacing" textLength="110.5998" x="575.0208" y="514.4595">registerError = null</text><text fill="#343A40" font-family="'Verdana'" font-size="11.4583" lengthAdjust="spacing" textLength="134.7082" x="575.0208" y="527.7977">registerSuccess = false</text></g><g class="entity" data-qualified-name="RegisterSuccess" data-source-line="37" id="ent0006"><path d="M386.2708,628.418 L529.736,628.418 A4.1667,4.1667 0 0 1 533.9027,632.5846 L533.9027,652.1729 L382.1042,652.1729 L382.1042,632.5846 A4.1667,4.1667 0 0 1 386.2708,628.418" fill="url(#g1vuyfij03rxht1)" style="stroke:url(#g1vuyfij03rxht1);stroke-width:1.0417;"/><path d="M382.1042,652.1729 L533.9027,652.1729 L533.9027,698.4375 A4.1667,4.1667 0 0 1 529.736,702.6042 L386.2708,702.6042 A4.1667,4.1667 0 0 1 382.1042,698.4375 L382.1042,652.1729" fill="url(#g1vuyfij03rxht1)" style="stroke:url(#g1vuyfij03rxht1);stroke-width:1.0417;"/><rect fill="none" height="74.1862" rx="4.1667" ry="4.1667" style="stroke:#2683B9;stroke-width:1.0417;" width="151.7985" x="382.1042" y="628.418"/><line style="stroke:#2683B9;stroke-width:1.0417;" x1="382.1042" x2="533.9027" y1="652.1729" y2="652.1729"/><line style="stroke:#2683B9;stroke-width:1.0417;" x1="382.1042" x2="533.9027" y1="652.1729" y2="652.1729"/><text fill="#343A40" font-family="'Verdana'" font-size="11.4583" lengthAdjust="spacing" textLength="124.9395" x="395.5337" y="644.2622">Registro com sucesso</text><text fill="#343A40" font-family="'Verdana'" font-size="11.4583" lengthAdjust="spacing" textLength="98.705" x="387.3125" y="668.0171">isLoading = false</text><text fill="#343A40" font-family="'Verdana'" font-size="11.4583" lengthAdjust="spacing" textLength="130.9652" x="387.3125" y="681.3553">registerSuccess = true</text><text fill="#343A40" font-family="'Verdana'" font-size="11.4583" lengthAdjust="spacing" textLength="110.5998" x="387.3125" y="694.6935">registerError = null</text></g><g class="entity" data-qualified-name="RegisterError" data-source-line="43" id="ent0007"><path d="M806.7917,628.418 L1086.291,628.418 A4.1667,4.1667 0 0 1 1090.4576,632.5846 L1090.4576,652.1729 L802.625,652.1729 L802.625,632.5846 A4.1667,4.1667 0 0 1 806.7917,628.418" fill="url(#g1vuyfij03rxht1)" style="stroke:url(#g1vuyfij03rxht1);stroke-width:1.0417;"/><path d="M802.625,652.1729 L1090.4576,652.1729 L1090.4576,698.4375 A4.1667,4.1667 0 0 1 1086.291,702.6042 L806.7917,702.6042 A4.1667,4.1667 0 0 1 802.625,698.4375 L802.625,652.1729" fill="url(#g1vuyfij03rxht1)" style="stroke:url(#g1vuyfij03rxht1);stroke-width:1.0417;"/><rect fill="none" height="74.1862" rx="4.1667" ry="4.1667" style="stroke:#2683B9;stroke-width:1.0417;" width="287.8326" x="802.625" y="628.418"/><line style="stroke:#2683B9;stroke-width:1.0417;" x1="802.625" x2="1090.4576" y1="652.1729" y2="652.1729"/><line style="stroke:#2683B9;stroke-width:1.0417;" x1="802.625" x2="1090.4576" y1="652.1729" y2="652.1729"/><text fill="#343A40" font-family="'Verdana'" font-size="11.4583" lengthAdjust="spacing" textLength="92.9311" x="900.0758" y="644.2622">Erro de Registro</text><text fill="#343A40" font-family="'Verdana'" font-size="11.4583" lengthAdjust="spacing" textLength="98.705" x="807.8333" y="668.0171">isLoading = false</text><text fill="#343A40" font-family="'Verdana'" font-size="11.4583" lengthAdjust="spacing" textLength="134.7082" x="807.8333" y="681.3553">registerSuccess = false</text><text fill="#343A40" font-family="'Verdana'" font-size="11.4583" lengthAdjust="spacing" textLength="266.9993" x="807.8333" y="694.6935">registerError = 'AUTH_REGISTER:errorGeneric'</text></g><g class="start_entity" data-qualified-name=".start." data-source-line="4" id="ent0008"><ellipse cx="399.6667" cy="138.1576" fill="#033C73" rx="10.4167" ry="10.4167" style="stroke:#2683B9;stroke-width:1.0417;"/></g><g class="entity" data-qualified-name="GMN21" data-source-line="67" id="ent0022"><path d="M446.1563,115.2826 L446.1563,161.0182 A4.1667,4.1667 0 0 0 450.3229,165.1849 L603.1651,165.1849 A4.1667,4.1667 0 0 0 607.3318,161.0182 L607.3318,121.5326 L596.9151,111.1159 L450.3229,111.1159 A4.1667,4.1667 0 0 0 446.1563,115.2826" fill="url(#g1vuyfij03rxht2)" style="stroke:#033C73;stroke-width:1.0417;"/><path d="M596.9151,111.1159 L596.9151,119.4492 A2.0833,2.0833 0 0 0 598.9985,121.5326 L607.3318,121.5326 L596.9151,111.1159" fill="url(#g1vuyfij03rxht2)" style="stroke:#033C73;stroke-width:1.0417;"/><text fill="#FFFFFF" font-family="'Verdana'" font-size="12.5" lengthAdjust="spacing" textLength="136.5723" x="452.4063" y="127.927">isLoading e loginError</text><text fill="#FFFFFF" font-family="'Verdana'" font-size="12.5" lengthAdjust="spacing" textLength="96.7468" x="452.4063" y="142.4778">N&#195;O entram no</text><text fill="#FFFFFF" font-family="'Verdana'" font-size="12.5" lengthAdjust="spacing" textLength="139.3005" x="452.4063" y="157.0286">redux-persist whitelist</text></g><g class="entity" data-qualified-name="GMN24" data-source-line="73" id="ent0025"><path d="M570.6354,642.6471 L570.6354,661.3451 L534.0313,665.5117 L570.6354,669.6784 L570.6354,688.3828 A4.1667,4.1667 0 0 0 574.8021,692.5495 L762.0193,692.5495 A4.1667,4.1667 0 0 0 766.186,688.3828 L766.186,648.8971 L755.7693,638.4805 L574.8021,638.4805 A4.1667,4.1667 0 0 0 570.6354,642.6471" fill="url(#g1vuyfij03rxht2)" style="stroke:#033C73;stroke-width:1.0417;"/><path d="M755.7693,638.4805 L755.7693,646.8138 A2.0833,2.0833 0 0 0 757.8526,648.8971 L766.186,648.8971 L755.7693,638.4805" fill="url(#g1vuyfij03rxht2)" style="stroke:#033C73;stroke-width:1.0417;"/><text fill="#FFFFFF" font-family="'Verdana'" font-size="12.5" lengthAdjust="spacing" textLength="173.6755" x="576.8854" y="655.2916">Token storage e navega&#231;&#227;o</text><text fill="#FFFFFF" font-family="'Verdana'" font-size="12.5" lengthAdjust="spacing" textLength="98.8831" x="576.8854" y="669.8424">p&#243;s-registro em</text><text fill="#FFFFFF" font-family="'Verdana'" font-size="12.5" lengthAdjust="spacing" textLength="162.8418" x="576.8854" y="684.3931">TASK-FRONTEND-002/003</text></g><!--link *start* to Idle--><g class="link" data-entity-1="ent0008" data-entity-2="ent0001" data-link-type="dependency" data-source-line="4" id="lnk9"><path d="M399.3229,149.0221 C398.5417,171.1992 396.7859,221.1711 395.3484,262.3482" fill="none" id="*start*-to-Idle" style="stroke:#2FA4E7;stroke-width:3.125;"/><polygon fill="#2FA4E7" points="395.1667,267.5534,399.6579,258.3295,395.3484,262.3482,391.3296,258.0387,395.1667,267.5534" style="stroke:#2FA4E7;stroke-width:3.125;stroke-linejoin:miter;stroke-miterlimit:10;"/><text fill="#343A40" font-family="'Verdana'" font-size="12.5" lengthAdjust="spacing" textLength="81.543" x="398.625" y="226.427">app inicializa</text></g><!--link Idle to LoginLoading--><g class="link" data-entity-1="ent0001" data-entity-2="ent0002" data-link-type="dependency" data-source-line="50" id="lnk10"><path d="M315.3646,353.7409 C303.8125,358.8034 292.0521,363.9492 280.9167,368.8138 C249,382.7617 231.8958,373.7826 209.0417,400.0638 C192.6667,418.8971 186.7563,441.6647 184.173,462.821" fill="none" id="Idle-to-LoginLoading" style="stroke:#2FA4E7;stroke-width:3.125;"/><polygon fill="#2FA4E7" points="183.5417,467.9909,188.8139,459.19,184.173,462.821,180.542,458.18,183.5417,467.9909" style="stroke:#2FA4E7;stroke-width:3.125;stroke-linejoin:miter;stroke-miterlimit:10;"/><text fill="#343A40" font-family="'Verdana'" font-size="12.5" lengthAdjust="spacing" textLength="132.0557" x="210.0833" y="412.7083">dispatch(loginThunk)</text><text fill="#343A40" font-family="'Verdana'" font-size="12.5" lengthAdjust="spacing" textLength="60.5652" x="245.8286" y="427.259">[pending]</text></g><!--link LoginLoading to Authenticated--><g class="link" data-entity-1="ent0002" data-entity-2="ent0003" data-link-type="dependency" data-source-line="51" id="lnk11"><path d="M178.3125,467.6888 C173.625,423.7096 167.1458,339.0846 176.75,267.9492 C181.0417,236.1367 189.4532,206.0069 197.7344,180.5173" fill="none" id="LoginLoading-to-Authenticated" style="stroke:#2FA4E7;stroke-width:3.125;"/><polygon fill="#2FA4E7" points="199.3438,175.5638,192.4842,183.1926,197.7344,180.5173,200.4097,185.7675,199.3438,175.5638" style="stroke:#2FA4E7;stroke-width:3.125;stroke-linejoin:miter;stroke-miterlimit:10;"/><text fill="#343A40" font-family="'Verdana'" font-size="12.5" lengthAdjust="spacing" textLength="119.3054" x="177.7917" y="315.927">loginThunk.fulfilled</text><text fill="#343A40" font-family="'Verdana'" font-size="12.5" lengthAdjust="spacing" textLength="95.3735" x="189.7576" y="330.4778">(user recebido)</text></g><!--link LoginLoading to LoginError--><g class="link" data-entity-1="ent0002" data-entity-2="ent0004" data-link-type="dependency" data-source-line="52" id="lnk12"><path d="M114.3021,517.8346 C67.1146,534.0951 16.6667,560.9492 41.3333,597.168 C52.6354,613.7721 64.1142,623.8381 81.9475,633.2651" fill="none" id="LoginLoading-to-LoginError" style="stroke:#2FA4E7;stroke-width:3.125;"/><polygon fill="#2FA4E7" points="86.5521,635.6992,80.2111,627.6342,81.9475,633.2651,76.3166,635.0015,86.5521,635.6992" style="stroke:#2FA4E7;stroke-width:3.125;stroke-linejoin:miter;stroke-miterlimit:10;"/><text fill="#343A40" font-family="'Verdana'" font-size="12.5" lengthAdjust="spacing" textLength="124.4568" x="42.375" y="579.6041">loginThunk.rejected</text><text fill="#343A40" font-family="'Verdana'" font-size="12.5" lengthAdjust="spacing" textLength="119.9768" x="44.615" y="594.1549">(401 ou outro erro)</text></g><!--link LoginError to LoginLoading--><g class="link" data-entity-1="ent0004" data-entity-2="ent0002" data-link-type="dependency" data-source-line="53" id="lnk13"><path d="M205.4688,627.9388 C200.0417,598.3346 193.4277,562.2703 188.3652,534.6244" fill="none" id="LoginError-to-LoginLoading" style="stroke:#2FA4E7;stroke-width:3.125;"/><polygon fill="#2FA4E7" points="187.4271,529.5013,185.0172,539.4735,188.3652,534.6244,193.2143,537.9724,187.4271,529.5013" style="stroke:#2FA4E7;stroke-width:3.125;stroke-linejoin:miter;stroke-miterlimit:10;"/><text fill="#343A40" font-family="'Verdana'" font-size="12.5" lengthAdjust="spacing" textLength="132.0557" x="201.75" y="579.6041">dispatch(loginThunk)</text><text fill="#343A40" font-family="'Verdana'" font-size="12.5" lengthAdjust="spacing" textLength="100.8606" x="217.3475" y="594.1549">[nova tentativa]</text></g><!--link LoginError to Idle--><g class="link" data-entity-1="ent0004" data-entity-2="ent0001" data-link-type="dependency" data-source-line="54" id="lnk14"><path d="M308.2813,628.0951 C321.3021,619.6471 333.2813,609.4388 342.375,597.168 C368.6042,561.7721 382.6959,444.3341 389.0396,374.4383" fill="none" id="LoginError-to-Idle" style="stroke:#2FA4E7;stroke-width:3.125;"/><polygon fill="#2FA4E7" points="389.5104,369.2513,384.5134,378.2113,389.0396,374.4383,392.8126,378.9645,389.5104,369.2513" style="stroke:#2FA4E7;stroke-width:3.125;stroke-linejoin:miter;stroke-miterlimit:10;"/><text fill="#343A40" font-family="'Verdana'" font-size="12.5" lengthAdjust="spacing" textLength="161.6699" x="379.875" y="503.4478">dispatch(resetAuthErrors)</text></g><!--link Idle to RegisterLoading--><g class="link" data-entity-1="ent0001" data-entity-2="ent0005" data-link-type="dependency" data-source-line="57" id="lnk15"><path d="M464.5521,369.293 C506.1146,398.418 553.3803,431.5543 591.172,458.0335" fill="none" id="Idle-to-RegisterLoading" style="stroke:#2FA4E7;stroke-width:3.125;"/><polygon fill="#2FA4E7" points="595.4375,461.0221,590.1505,452.2301,591.172,458.0335,585.3686,459.0549,595.4375,461.0221" style="stroke:#2FA4E7;stroke-width:3.125;stroke-linejoin:miter;stroke-miterlimit:10;"/><text fill="#343A40" font-family="'Verdana'" font-size="12.5" lengthAdjust="spacing" textLength="150.0854" x="551.75" y="412.7083">dispatch(registerThunk)</text><text fill="#343A40" font-family="'Verdana'" font-size="12.5" lengthAdjust="spacing" textLength="60.5652" x="596.5101" y="427.259">[pending]</text></g><!--link RegisterLoading to RegisterSuccess--><g class="link" data-entity-1="ent0005" data-entity-2="ent0006" data-link-type="dependency" data-source-line="58" id="lnk16"><path d="M569.4167,526.6055 C518.7604,544.2513 461.8646,564.4805 460.0833,566.9596 C447.625,584.2826 446.2616,603.001 448.772,622.8031" fill="none" id="RegisterLoading-to-RegisterSuccess" style="stroke:#2FA4E7;stroke-width:3.125;"/><polygon fill="#2FA4E7" points="449.4271,627.9701,452.3816,618.1455,448.772,622.8031,444.1144,619.1935,449.4271,627.9701" style="stroke:#2FA4E7;stroke-width:3.125;stroke-linejoin:miter;stroke-miterlimit:10;"/><text fill="#343A40" font-family="'Verdana'" font-size="12.5" lengthAdjust="spacing" textLength="137.3352" x="461.125" y="579.6041">registerThunk.fulfilled</text><text fill="#343A40" font-family="'Verdana'" font-size="12.5" lengthAdjust="spacing" textLength="87.3291" x="486.1281" y="594.1549">(201 Created)</text></g><!--link RegisterLoading to RegisterError--><g class="link" data-entity-1="ent0005" data-entity-2="ent0007" data-link-type="dependency" data-source-line="59" id="lnk17"><path d="M725.6563,530.4701 C749.0833,540.8867 774.4167,553.3659 796.5417,566.9596 C814.7708,578.168 816.4792,584.9284 834.0417,597.168 C849.2604,607.7721 861.7237,615.7657 877.7341,625.3907" fill="none" id="RegisterLoading-to-RegisterError" style="stroke:#2FA4E7;stroke-width:3.125;"/><polygon fill="#2FA4E7" points="882.1979,628.0742,876.3099,619.6729,877.7341,625.3907,872.0163,626.8149,882.1979,628.0742" style="stroke:#2FA4E7;stroke-width:3.125;stroke-linejoin:miter;stroke-miterlimit:10;"/><text fill="#343A40" font-family="'Verdana'" font-size="12.5" lengthAdjust="spacing" textLength="142.4866" x="835.0833" y="579.6041">registerThunk.rejected</text><text fill="#343A40" font-family="'Verdana'" font-size="12.5" lengthAdjust="spacing" textLength="119.9768" x="846.3382" y="594.1549">(409 ou outro erro)</text></g><!--link RegisterError to RegisterLoading--><g class="link" data-entity-1="ent0007" data-entity-2="ent0005" data-link-type="dependency" data-source-line="60" id="lnk18"><path d="M802.1354,632.3555 C796.0208,631.0221 789.9688,629.6992 784.0417,628.418 C718.375,614.1992 678.4375,649.3659 636.125,597.168 C622.4896,580.3555 623.6719,561.1966 629.8594,541.1549" fill="none" id="RegisterError-to-RegisterLoading" style="stroke:#2FA4E7;stroke-width:3.125;"/><polygon fill="#2FA4E7" points="631.3958,536.1784,624.649,543.9071,629.8594,541.1549,632.6115,546.3653,631.3958,536.1784" style="stroke:#2FA4E7;stroke-width:3.125;stroke-linejoin:miter;stroke-miterlimit:10;"/><text fill="#343A40" font-family="'Verdana'" font-size="12.5" lengthAdjust="spacing" textLength="150.0854" x="637.1667" y="579.6041">dispatch(registerThunk)</text><text fill="#343A40" font-family="'Verdana'" font-size="12.5" lengthAdjust="spacing" textLength="100.8606" x="661.7791" y="594.1549">[nova tentativa]</text></g><!--link RegisterError to Idle--><g class="link" data-entity-1="ent0007" data-entity-2="ent0001" data-link-type="dependency" data-source-line="61" id="lnk19"><path d="M974.3021,628.0638 C985.125,609.1888 992.6667,586.1471 981.9583,566.9596 C913.0208,443.5117 841.3333,455.1784 711.125,400.0638 C632.6458,366.8451 542.3874,345.8704 476.7312,333.3809" fill="none" id="RegisterError-to-Idle" style="stroke:#2FA4E7;stroke-width:3.125;"/><polygon fill="#2FA4E7" points="471.6146,332.4076,480.0458,338.2528,476.7312,333.3809,481.6031,330.0662,471.6146,332.4076" style="stroke:#2FA4E7;stroke-width:3.125;stroke-linejoin:miter;stroke-miterlimit:10;"/><text fill="#343A40" font-family="'Verdana'" font-size="12.5" lengthAdjust="spacing" textLength="161.6699" x="962.1667" y="503.4478">dispatch(resetAuthErrors)</text></g><!--link Authenticated to Idle--><g class="link" data-entity-1="ent0003" data-entity-2="ent0001" data-link-type="dependency" data-source-line="64" id="lnk20"><path d="M216.5313,175.3034 C220.4896,195.2201 228.0417,219.3555 242.375,236.6992 C253.1667,249.7721 279.6149,264.8965 310.8337,280.1985" fill="none" id="Authenticated-to-Idle" style="stroke:#2FA4E7;stroke-width:3.125;"/><polygon fill="#2FA4E7" points="315.5104,282.4909,308.9261,274.6233,310.8337,280.1985,305.2584,282.1061,315.5104,282.4909" style="stroke:#2FA4E7;stroke-width:3.125;stroke-linejoin:miter;stroke-miterlimit:10;"/><text fill="#343A40" font-family="'Verdana'" font-size="12.5" lengthAdjust="spacing" textLength="39.5264" x="295.9161" y="219.1353">logout</text><text fill="#343A40" font-family="'Verdana'" font-size="12.5" lengthAdjust="spacing" textLength="144.5251" x="243.4167" y="233.6861">(TASK-FRONTEND-003)</text></g><!--link Authenticated to GMN21--><g class="link" data-entity-1="ent0003" data-entity-2="ent0022" data-link-type="association" data-source-line="67" id="lnk23"><path d="M272.1667,106.9492 C311.3438,90.3659 363.7396,75.293 410.6042,85.4388 C433.9792,90.4909 458.3021,100.668 478.6146,110.7409" fill="none" id="Authenticated-GMN21" style="stroke:#2FA4E7;stroke-width:3.125;stroke-dasharray:7.2917,7.2917;"/></g><?plantuml-src bLLTRXCn47xVKmnzQOEqK0elL0AfWb0gIegIxLCR8RCxsPXkxCNsbZyX8N45Be1uu00S8JVX98ozsUoFDw58aPgEl_dypJSppYqpnmL2ZAh8a8d0S9CX71LcFZ7C8Fpv-XrUBd-yAxXWa20CjM69rB37B2JZCGw2uEBs5CBmCPmab7i8BC-12nvpbl5FB0YqOtA7dmEeK8L61Oz055bM1xa-bIpX8gMJ6SiqraUPJBaOAYNzB8KfrmRLzjD94SUezPhvIwLivzHI0ouWLp9LX94xm3IuSAN7Acy5scADAj17-9hhIybZ58R7PAUxpNfU1WmcxhfsPEtOEVs9FkROW-YphulPfic6RPTT6RK79NhjGFbljuEjepuXBK1BnUxHUVJyzUdPySde46ti60Kg7kysf8rT5qcUrwRngh_DJdLZlStoGHi6QJDmyqojzSPo0Rg8FRbLQbDk5Uitq4VvCZgb-T1_TBwItP9QzxyTsIwpmcpoQZEoFHVZuV7991gE_T7OBMUAYcP2SyEbq85RUliOTLOnuJfd9fxlkScBveMu6boAYno51Ko35jpcz-wDoxipAx8Ppp9CBiMUMmA5CRxXYHpuDFxKbnmAts9i7CM3_NiW2_guyIReYgRCkdajGbupi8yAC_oQJRiag-TmdKmRXCPMwI1wOFsiEj9lgRy73RBoo3UsczGayiVJD_Y0t7cYq7PXi9MiEqKzFZ_i-jpE_TyQkuRxR3Vn_9NK9hG_fq5xv1hvr6TIJIL4HvCNuRFnsIWQZfw6-_ltYK58Mc35qxa1EMkFBUrOlQ7OU7JfOBJyTWQ4L6m1Gb90OL9y27DKceg0ztDkCADl0JKIx1tTcpfD98P8Ng40RQHYAT9zWbrZofQ_bZyjVxxyhKDLF-CseLFEmLqgQNtXNm00?></g></svg>